<?xml version="1.0" encoding="utf-8"?>
<!-- Generator: Adobe Illustrator 28.1.0, SVG Export Plug-In . SVG Version: 6.00 Build 0)  -->
<svg version="1.1" xmlns="http://www.w3.org/2000/svg" xmlns:xlink="http://www.w3.org/1999/xlink" x="0px" y="0px"
	 viewBox="0 0 841.89 595.28" style="enable-background:new 0 0 841.89 595.28;" xml:space="preserve">
<style type="text/css">
	.st0{fill:none;stroke:#000000;stroke-miterlimit:10;}
	.st1{fill:#F4AF89;}
	.st2{fill:#F1934D;}
	.st3{fill:#B22D23;}
	.st4{fill:#D0470A;}
	.st5{fill:#E68B00;}
	.st6{fill:#CD2A14;}
	.st7{fill:#F6A000;}
	.st8{fill:#D8AF59;}
	.st9{fill:#ABA1CF;stroke:#ABA1CF;stroke-miterlimit:10;}
	.st10{fill:#ABA1CF;}
	.st11{fill:#6668AE;}
	.st12{fill:#8E8BAF;}
	.st13{opacity:0.87;fill:#FFFFFF;}
	.st14{fill:#C61C18;}
	.st15{fill:url(#SVGID_1_);}
	.st16{opacity:0.82;fill:#FFFFFF;}
	.st17{fill:#75749E;}
	.st18{fill:#CC2C30;}
	.st19{fill:#F49752;}
</style>
<g id="Capa_2">
	<polygon class="st0" points="142.37,-173.22 75.43,-173.21 70.67,-185.35 146.63,-185.35 	"/>
	<line class="st0" x1="81.21" y1="-185.35" x2="81.21" y2="-173.25"/>
	<line class="st0" x1="92.55" y1="-185.35" x2="92.55" y2="-173.25"/>
	<line class="st0" x1="103.89" y1="-185.35" x2="103.89" y2="-173.25"/>
	<line class="st0" x1="115.23" y1="-185.35" x2="115.23" y2="-173.25"/>
	<line class="st0" x1="126.57" y1="-185.35" x2="126.57" y2="-173.25"/>
	<line class="st0" x1="137.9" y1="-185.35" x2="137.9" y2="-173.25"/>
	<path class="st0" d="M64.43-172.8c0,0-19.09-5.31-27.87-41.34c0,0-18.22,60.82,27.19,58.21c0.35-0.02,0.68-0.17,0.68-0.53V-172.8z"
		/>
	<path class="st0" d="M168.92-172.8l-6.4,11.23c-2.02,3.54-5.78,5.73-9.86,5.73l-89.81,0.02c-4.23,0-7.97-2.1-9.93-5.84L47.1-172.8
		H168.92z"/>
</g>
<g id="Fuego">
	<path class="st1" d="M384.81-550.36c0,0,5.8,9.38,1.97,22.96c0,0-2.59,8.27-7.65,14.56c-5.06,6.29-13.45,14.93-15.43,28.76
		c-1.97,13.82,5.8,22.96,8.27,25.92c0,0-2.96-10-0.62-17.28c1.68-5.23,5.09-9.69,7.19-12.16c0.94-1.1,1.94-2.13,3.01-3.1
		c2.79-2.53,9.22-8.41,11.27-10.78c1.78-2.05,8.02-7.04,7.65-18.14c0,0-0.03-0.66-0.09-1.71c-0.59-9.04-4.22-17.66-10.42-24.25
		C388.46-547.19,386.74-548.82,384.81-550.36z"/>
	<path class="st1" d="M404.66-522.67c1.7,1.71,4.82,5.31,6.49,10.85c0.76,2.53,2.1,8.38,0,14.91c-1.68,5.22-4.05,9.11-8.91,12.4
		c-6.29,4.26-13.87,8.43-18.11,14.72c-2.07,3.07-4.3,8.18-3.78,16.66c-6.97-4.16-5.28-18.94-3.39-23.53
		c2.33-5.66,7.99-10.84,15.3-17.53c2.11-1.94,6.12-5.45,9.49-11.23c1.74-2.99,2.43-5.07,2.81-6.58
		C405.68-516.5,405.16-520.38,404.66-522.67z"/>
	<path class="st1" d="M418.28-509.36c1.92,2.53,4.93,7.15,6.46,13.64c0.6,2.52,2,8.79,0,16.39c-0.72,2.73-7.45,16.49-11.79,16.94
		c-2.45,0.25-5.64,0.45-6.84,0.77c-1.29,0.35-10.11,4.85-12.58,8.83c-0.19,0.3-0.5,0.5-0.86,0.5h-7.05
		c-0.52-12.23,6.01-17.52,8.16-19.26c10.99-8.88,17.96-9.74,23.09-22.53C417.87-496.57,419.07-505.73,418.28-509.36z"/>
	<path class="st1" d="M356.71-511.41c0.01-0.04,0.05-0.07,0.09-0.04c1.49,1.03,4.51,3.44,5.63,7.48c0.67,2.43,1.06,4.65,0,7
		c-1.77,3.93-2.5,6.91-3.34,10.8c-1.04,4.82-0.33,8.9,0,11c0.4,2.53,1.02,4.63,1.58,6.2c0.02,0.06-0.07,0.1-0.11,0.05
		c-3.73-4.78-4.65-8.09-5.49-10.75c-1.88-5.93-2.03-13.68,0.1-23.12C355.84-505.76,356.14-508.5,356.71-511.41z"/>
	<path class="st1" d="M364.45-519.88c0.78,0.36,3.15,2.53,3.95,4.3c0.17,0.37,0.55,2.04-0.03,3.35c-0.29,0.67-0.94,1.47-2.56,1.52
		c-1.6,0.05-2.74-1.24-2.74-2.44c0-1.42,0.51-1.75,1.05-3.17C364.67-517.74,364.63-518.97,364.45-519.88z"/>
	<path class="st1" d="M371.64-532.97c1.13,0.57,5.42,4.41,6.27,7.16c0.09,0.29,0.56,2.45-0.36,4.37c-0.47,0.97-1.47,2.13-3.87,2.12
		c-2.37-0.01-3.25-1.99-3.53-3.73c-0.26-1.63,0.83-2.86,1.41-4.09C372.5-529.17,371.86-531.6,371.64-532.97z"/>
	<ellipse class="st1" cx="380.22" cy="-535.71" rx="2.43" ry="1.92"/>
	<g>
		<path class="st2" d="M381.1-421.34c0,0,5.8,9.38,1.97,22.96c0,0-2.59,8.27-7.65,14.56s-13.45,14.93-15.43,28.76
			c-1.97,13.82,5.8,22.96,8.27,25.92c0,0-2.96-10-0.62-17.28c1.68-5.23,5.09-9.69,7.19-12.16c0.94-1.1,1.94-2.13,3.01-3.1
			c2.79-2.53,9.22-8.41,11.27-10.78c1.78-2.05,8.02-7.04,7.65-18.14c0,0-0.03-0.66-0.09-1.71c-0.59-9.04-4.22-17.66-10.42-24.25
			C384.75-418.17,383.03-419.79,381.1-421.34z"/>
		<path class="st2" d="M400.95-393.65c1.7,1.71,4.82,5.31,6.49,10.85c0.76,2.53,2.1,8.38,0,14.91c-1.68,5.22-4.05,9.11-8.91,12.4
			c-6.29,4.26-13.87,8.43-18.11,14.72c-2.07,3.07-4.3,8.18-3.78,16.66c-6.97-4.16-5.28-18.94-3.39-23.53
			c2.33-5.66,7.99-10.84,15.3-17.53c2.11-1.94,6.12-5.45,9.49-11.23c1.74-2.99,2.43-5.07,2.81-6.58
			C401.97-387.48,401.45-391.35,400.95-393.65z"/>
		<path class="st2" d="M414.57-380.33c1.92,2.53,4.93,7.15,6.46,13.64c0.6,2.52,2,8.79,0,16.39c-0.72,2.73-7.45,16.49-11.79,16.94
			c-2.45,0.25-5.64,0.45-6.84,0.77c-1.29,0.35-10.11,4.85-12.58,8.83c-0.19,0.3-0.5,0.5-0.86,0.5h-7.05
			c-0.52-12.23,6.01-17.52,8.16-19.26c10.99-8.88,17.96-9.74,23.09-22.53C414.16-367.55,415.36-376.71,414.57-380.33z"/>
		<path class="st2" d="M353-382.39c0.01-0.04,0.05-0.07,0.09-0.04c1.49,1.03,4.51,3.44,5.63,7.48c0.67,2.43,1.06,4.65,0,7
			c-1.77,3.93-2.5,6.91-3.34,10.8c-1.04,4.82-0.33,8.9,0,11c0.4,2.53,1.02,4.63,1.58,6.2c0.02,0.06-0.07,0.1-0.11,0.05
			c-3.73-4.78-4.65-8.09-5.49-10.75c-1.88-5.93-2.03-13.68,0.1-23.12C352.13-376.74,352.43-379.48,353-382.39z"/>
		<path class="st2" d="M360.74-390.86c0.78,0.36,3.15,2.53,3.95,4.3c0.17,0.37,0.55,2.04-0.03,3.35c-0.29,0.67-0.94,1.47-2.56,1.52
			c-1.6,0.05-2.74-1.24-2.74-2.44c0-1.42,0.51-1.75,1.05-3.17C360.96-388.72,360.92-389.95,360.74-390.86z"/>
		<path class="st2" d="M367.93-403.94c1.13,0.57,5.42,4.41,6.27,7.16c0.09,0.29,0.56,2.45-0.36,4.37c-0.47,0.97-1.47,2.13-3.87,2.12
			c-2.37-0.01-3.25-1.99-3.53-3.73c-0.26-1.63,0.83-2.86,1.41-4.09C368.79-400.14,368.14-402.58,367.93-403.94z"/>
		<ellipse class="st2" cx="376.51" cy="-406.69" rx="2.43" ry="1.92"/>
	</g>
	<path class="st2" d="M495.17-424.27c0,0,5.8,9.38,1.97,22.96c0,0-2.59,8.27-7.65,14.56s-13.45,14.93-15.43,28.76
		c-1.97,13.82,5.8,22.96,8.27,25.92c0,0-2.96-10-0.62-17.28c1.68-5.23,5.09-9.69,7.19-12.16c0.94-1.1,1.94-2.13,3.01-3.1
		c2.79-2.53,9.22-8.41,11.27-10.78c1.78-2.05,8.02-7.04,7.65-18.14c0,0-0.03-0.66-0.09-1.71c-0.59-9.04-4.22-17.66-10.42-24.25
		C498.82-421.1,497.1-422.73,495.17-424.27z"/>
	<path class="st3" d="M515.02-396.58c1.7,1.71,4.82,5.31,6.49,10.85c0.76,2.53,2.1,8.38,0,14.91c-1.68,5.22-4.05,9.11-8.91,12.4
		c-6.29,4.26-13.87,8.43-18.11,14.72c-2.07,3.07-4.3,8.18-3.78,16.66c-6.97-4.16-5.28-18.94-3.39-23.53
		c2.33-5.66,7.99-10.84,15.3-17.53c2.11-1.94,6.12-5.45,9.49-11.23c1.74-2.99,2.43-5.07,2.81-6.58
		C516.04-390.42,515.52-394.29,515.02-396.58z"/>
	<path class="st2" d="M528.64-383.27c1.92,2.53,4.93,7.15,6.46,13.64c0.6,2.52,2,8.79,0,16.39c-0.72,2.73-7.45,16.49-11.79,16.94
		c-2.45,0.25-5.64,0.45-6.84,0.77c-1.29,0.35-10.11,4.85-12.58,8.83c-0.19,0.3-0.5,0.5-0.86,0.5h-7.05
		c-0.52-12.23,6.01-17.52,8.16-19.26c10.99-8.88,17.96-9.74,23.09-22.53C528.23-370.48,529.43-379.64,528.64-383.27z"/>
	<path class="st3" d="M467.07-385.32c0.01-0.04,0.05-0.07,0.09-0.04c1.49,1.03,4.51,3.44,5.63,7.48c0.67,2.43,1.06,4.65,0,7
		c-1.77,3.93-2.5,6.91-3.34,10.8c-1.04,4.82-0.33,8.9,0,11c0.4,2.53,1.02,4.63,1.58,6.2c0.02,0.06-0.07,0.1-0.11,0.05
		c-3.73-4.78-4.65-8.09-5.49-10.75c-1.88-5.93-2.03-13.68,0.1-23.12C466.2-379.67,466.5-382.41,467.07-385.32z"/>
	<path class="st2" d="M474.81-393.8c0.78,0.36,3.15,2.53,3.95,4.3c0.17,0.37,0.55,2.04-0.03,3.35c-0.29,0.67-0.94,1.47-2.56,1.52
		c-1.6,0.05-2.74-1.24-2.74-2.44c0-1.42,0.51-1.75,1.05-3.17C475.03-391.66,474.99-392.88,474.81-393.8z"/>
	<path class="st3" d="M482-406.88c1.13,0.57,5.42,4.41,6.27,7.16c0.09,0.29,0.56,2.45-0.36,4.37c-0.47,0.97-1.47,2.13-3.87,2.12
		c-2.37-0.01-3.25-1.99-3.53-3.73c-0.26-1.63,0.83-2.86,1.41-4.09C482.86-403.08,482.21-405.51,482-406.88z"/>
	<ellipse class="st2" cx="490.58" cy="-409.63" rx="2.43" ry="1.92"/>
	<path class="st2" d="M589.85-424.27c0,0,5.8,9.38,1.97,22.96c0,0-2.59,8.27-7.65,14.56c-5.06,6.29-13.45,14.93-15.43,28.76
		s5.8,22.96,8.27,25.92c0,0-2.96-10-0.62-17.28c1.68-5.23,5.09-9.69,7.19-12.16c0.94-1.1,1.94-2.13,3.01-3.1
		c2.79-2.53,9.22-8.41,11.27-10.78c1.78-2.05,8.02-7.04,7.65-18.14c0,0-0.03-0.66-0.09-1.71c-0.59-9.04-4.22-17.66-10.42-24.25
		C593.5-421.1,591.78-422.73,589.85-424.27z"/>
	<path class="st4" d="M609.69-396.58c1.7,1.71,4.82,5.31,6.49,10.85c0.76,2.53,2.1,8.38,0,14.91c-1.68,5.22-4.05,9.11-8.91,12.4
		c-6.29,4.26-13.87,8.43-18.11,14.72c-2.07,3.07-4.3,8.18-3.78,16.66c-6.97-4.16-5.28-18.94-3.39-23.53
		c2.33-5.66,7.99-10.84,15.3-17.53c2.11-1.94,6.12-5.45,9.49-11.23c1.74-2.99,2.43-5.07,2.81-6.58
		C610.72-390.42,610.2-394.29,609.69-396.58z"/>
	<path class="st2" d="M623.32-383.27c1.92,2.53,4.93,7.15,6.46,13.64c0.6,2.52,2,8.79,0,16.39c-0.72,2.73-7.45,16.49-11.79,16.94
		c-2.45,0.25-5.64,0.45-6.84,0.77c-1.29,0.35-10.11,4.85-12.58,8.83c-0.19,0.3-0.5,0.5-0.86,0.5h-7.05
		c-0.52-12.23,6.01-17.52,8.16-19.26c10.99-8.88,17.96-9.74,23.09-22.53C622.91-370.48,624.11-379.64,623.32-383.27z"/>
	<path class="st4" d="M561.75-385.32c0.01-0.04,0.05-0.07,0.09-0.04c1.49,1.03,4.51,3.44,5.63,7.48c0.67,2.43,1.06,4.65,0,7
		c-1.77,3.93-2.5,6.91-3.34,10.8c-1.04,4.82-0.33,8.9,0,11c0.4,2.53,1.02,4.63,1.58,6.2c0.02,0.06-0.07,0.1-0.11,0.05
		c-3.73-4.78-4.65-8.09-5.49-10.75c-1.88-5.93-2.03-13.68,0.1-23.12C560.88-379.67,561.17-382.41,561.75-385.32z"/>
	<path class="st2" d="M569.49-393.8c0.78,0.36,3.15,2.53,3.95,4.3c0.17,0.37,0.55,2.04-0.03,3.35c-0.29,0.67-0.94,1.47-2.56,1.52
		c-1.6,0.05-2.74-1.24-2.74-2.44c0-1.42,0.51-1.75,1.05-3.17C569.7-391.66,569.67-392.88,569.49-393.8z"/>
	<path class="st4" d="M576.68-406.88c1.13,0.57,5.42,4.41,6.27,7.16c0.09,0.29,0.56,2.45-0.36,4.37c-0.47,0.97-1.47,2.13-3.87,2.12
		c-2.37-0.01-3.25-1.99-3.53-3.73c-0.26-1.63,0.83-2.86,1.41-4.09C577.54-403.08,576.89-405.51,576.68-406.88z"/>
	<ellipse class="st2" cx="585.26" cy="-409.63" rx="2.43" ry="1.92"/>
	<path class="st5" d="M692.71-427.21c0,0,5.8,9.38,1.97,22.96c0,0-2.59,8.27-7.65,14.56s-13.45,14.93-15.43,28.76
		c-1.97,13.82,5.8,22.96,8.27,25.92c0,0-2.96-10-0.62-17.28c1.68-5.23,5.09-9.69,7.19-12.16c0.94-1.1,1.94-2.13,3.01-3.1
		c2.79-2.53,9.22-8.41,11.27-10.78c1.78-2.05,8.02-7.04,7.65-18.14c0,0-0.03-0.66-0.09-1.71c-0.59-9.04-4.22-17.66-10.42-24.25
		C696.36-424.04,694.64-425.66,692.71-427.21z"/>
	<path class="st4" d="M712.55-399.52c1.7,1.71,4.82,5.31,6.49,10.85c0.76,2.53,2.1,8.38,0,14.91c-1.68,5.22-4.05,9.11-8.91,12.4
		c-6.29,4.26-13.87,8.43-18.11,14.72c-2.07,3.07-4.3,8.18-3.78,16.66c-6.97-4.16-5.28-18.94-3.39-23.53
		c2.33-5.66,7.99-10.84,15.3-17.53c2.11-1.94,6.12-5.45,9.49-11.23c1.74-2.99,2.43-5.07,2.81-6.58
		C713.58-393.35,713.06-397.22,712.55-399.52z"/>
	<path class="st5" d="M726.18-386.2c1.92,2.53,4.93,7.15,6.46,13.64c0.6,2.52,2,8.79,0,16.39c-0.72,2.73-7.45,16.49-11.79,16.94
		c-2.45,0.25-5.64,0.45-6.84,0.77c-1.29,0.35-10.11,4.85-12.58,8.83c-0.19,0.3-0.5,0.5-0.86,0.5l-7.05,0
		c-0.52-12.23,6.01-17.52,8.16-19.26c10.99-8.88,17.96-9.74,23.09-22.53C725.77-373.42,726.97-382.58,726.18-386.2z"/>
	<path class="st4" d="M664.61-388.26c0.01-0.04,0.05-0.07,0.09-0.04c1.49,1.03,4.51,3.44,5.63,7.48c0.67,2.43,1.06,4.65,0,7
		c-1.77,3.93-2.5,6.91-3.34,10.8c-1.04,4.82-0.33,8.9,0,11c0.4,2.53,1.02,4.63,1.58,6.2c0.02,0.06-0.07,0.1-0.11,0.05
		c-3.73-4.78-4.65-8.09-5.49-10.75c-1.88-5.93-2.03-13.68,0.1-23.12C663.74-382.61,664.03-385.35,664.61-388.26z"/>
	<path class="st5" d="M672.35-396.73c0.78,0.36,3.15,2.53,3.95,4.3c0.17,0.37,0.55,2.04-0.03,3.35c-0.29,0.67-0.94,1.47-2.56,1.52
		c-1.6,0.05-2.74-1.24-2.74-2.44c0-1.42,0.51-1.75,1.05-3.17C672.56-394.59,672.53-395.82,672.35-396.73z"/>
	<path class="st4" d="M679.54-409.81c1.13,0.57,5.42,4.41,6.27,7.16c0.09,0.29,0.56,2.45-0.36,4.37c-0.47,0.97-1.47,2.13-3.87,2.12
		c-2.37-0.01-3.25-1.99-3.53-3.73c-0.26-1.63,0.83-2.86,1.41-4.09C680.4-406.01,679.75-408.45,679.54-409.81z"/>
	<ellipse class="st5" cx="688.12" cy="-412.56" rx="2.43" ry="1.92"/>
	<path class="st5" d="M377-292.31c0,0,5.8,9.38,1.97,22.96c0,0-2.59,8.27-7.65,14.56s-13.45,14.93-15.43,28.76
		c-1.97,13.82,5.8,22.96,8.27,25.92c0,0-2.96-10-0.62-17.28c1.68-5.23,5.09-9.69,7.19-12.16c0.94-1.1,1.94-2.13,3.01-3.1
		c2.79-2.53,9.22-8.41,11.27-10.78c1.78-2.05,8.02-7.04,7.65-18.14c0,0-0.03-0.66-0.09-1.71c-0.59-9.04-4.22-17.66-10.42-24.25
		C380.65-289.15,378.93-290.77,377-292.31z"/>
	<path class="st6" d="M396.84-264.62c1.7,1.71,4.82,5.31,6.49,10.85c0.76,2.53,2.1,8.38,0,14.91c-1.68,5.22-4.05,9.11-8.91,12.4
		c-6.29,4.26-13.87,8.43-18.11,14.72c-2.07,3.07-4.3,8.18-3.78,16.66c-6.97-4.16-5.28-18.94-3.39-23.53
		c2.33-5.66,7.99-10.84,15.3-17.53c2.11-1.94,6.12-5.45,9.49-11.23c1.74-2.99,2.43-5.07,2.81-6.58
		C397.87-258.46,397.35-262.33,396.84-264.62z"/>
	<path class="st5" d="M410.47-251.31c1.92,2.53,4.93,7.15,6.46,13.64c0.6,2.52,2,8.79,0,16.39c-0.72,2.73-7.45,16.49-11.79,16.94
		c-2.45,0.25-5.64,0.45-6.84,0.77c-1.29,0.35-10.11,4.85-12.58,8.83c-0.19,0.3-0.5,0.5-0.86,0.5h-7.05
		c-0.52-12.23,6.01-17.52,8.16-19.26c10.99-8.88,17.96-9.74,23.09-22.53C410.06-238.53,411.26-247.69,410.47-251.31z"/>
	<path class="st6" d="M348.9-253.36c0.01-0.04,0.05-0.07,0.09-0.04c1.49,1.03,4.51,3.44,5.63,7.48c0.67,2.43,1.06,4.65,0,7
		c-1.77,3.93-2.5,6.91-3.34,10.8c-1.04,4.82-0.33,8.9,0,11c0.4,2.53,1.02,4.63,1.58,6.2c0.02,0.06-0.07,0.1-0.11,0.05
		c-3.73-4.78-4.65-8.09-5.49-10.75c-1.88-5.93-2.03-13.68,0.1-23.12C348.03-247.71,348.32-250.45,348.9-253.36z"/>
	<path class="st5" d="M356.64-261.84c0.78,0.36,3.15,2.53,3.95,4.3c0.17,0.37,0.55,2.04-0.03,3.35c-0.29,0.67-0.94,1.47-2.56,1.52
		c-1.6,0.05-2.74-1.24-2.74-2.44c0-1.42,0.51-1.75,1.05-3.17C356.85-259.7,356.82-260.92,356.64-261.84z"/>
	<path class="st6" d="M363.83-274.92c1.13,0.57,5.42,4.41,6.27,7.16c0.09,0.29,0.56,2.45-0.36,4.37c-0.47,0.97-1.47,2.13-3.87,2.12
		c-2.37-0.01-3.25-1.99-3.53-3.73c-0.26-1.63,0.83-2.86,1.41-4.09C364.69-271.12,364.04-273.56,363.83-274.92z"/>
	<ellipse class="st5" cx="372.41" cy="-277.67" rx="2.43" ry="1.92"/>
	<path class="st2" d="M373.35-183.97c0,0,5.8,9.38,1.97,22.96c0,0-2.59,8.27-7.65,14.56s-13.45,14.93-15.43,28.76
		s5.8,22.96,8.27,25.92c0,0-2.96-10-0.62-17.28c1.68-5.23,5.09-9.69,7.19-12.16c0.94-1.1,1.94-2.13,3.01-3.1
		c2.79-2.53,9.22-8.41,11.27-10.78c1.78-2.05,8.02-7.04,7.65-18.14c0,0-0.03-0.66-0.09-1.71c-0.59-9.04-4.22-17.66-10.42-24.25
		C377-180.8,375.28-182.43,373.35-183.97z"/>
	<path class="st6" d="M393.19-156.28c1.7,1.71,4.82,5.31,6.49,10.85c0.76,2.53,2.1,8.38,0,14.91c-1.68,5.22-4.05,9.11-8.91,12.4
		c-6.29,4.26-13.87,8.43-18.11,14.72c-2.07,3.07-4.3,8.18-3.78,16.66c-6.97-4.16-5.28-18.94-3.39-23.53
		c2.33-5.66,7.99-10.84,15.3-17.53c2.11-1.94,6.12-5.45,9.49-11.23c1.74-2.99,2.43-5.07,2.81-6.58
		C394.22-150.11,393.7-153.99,393.19-156.28z"/>
	<path class="st2" d="M406.82-142.97c1.93,2.53,4.93,7.15,6.46,13.64c0.6,2.52,2,8.79,0,16.39c-0.72,2.73-7.45,16.49-11.79,16.94
		c-2.45,0.25-5.64,0.45-6.84,0.77c-1.29,0.35-10.11,4.85-12.58,8.83c-0.19,0.3-0.5,0.5-0.86,0.5h-7.05
		c-0.52-12.23,6.01-17.52,8.16-19.26c10.99-8.88,17.96-9.74,23.09-22.53C406.41-130.18,407.61-139.34,406.82-142.97z"/>
	<path class="st6" d="M345.25-145.02c0.01-0.04,0.05-0.07,0.09-0.04c1.49,1.03,4.51,3.44,5.63,7.48c0.67,2.43,1.06,4.65,0,7
		c-1.77,3.93-2.5,6.91-3.34,10.8c-1.04,4.82-0.33,8.9,0,11c0.4,2.53,1.02,4.63,1.58,6.2c0.02,0.06-0.07,0.1-0.11,0.05
		c-3.73-4.78-4.65-8.09-5.49-10.75c-1.88-5.93-2.03-13.68,0.1-23.12C344.38-139.37,344.67-142.11,345.25-145.02z"/>
	<path class="st2" d="M352.99-153.5c0.78,0.36,3.15,2.53,3.95,4.3c0.17,0.37,0.55,2.04-0.03,3.35c-0.29,0.67-0.94,1.47-2.56,1.52
		c-1.6,0.05-2.74-1.24-2.74-2.44c0-1.42,0.51-1.75,1.05-3.17C353.2-151.35,353.17-152.58,352.99-153.5z"/>
	<path class="st6" d="M360.18-166.58c1.13,0.57,5.42,4.41,6.27,7.16c0.09,0.29,0.56,2.45-0.36,4.37c-0.47,0.97-1.47,2.13-3.87,2.12
		c-2.37-0.01-3.25-1.99-3.53-3.73c-0.26-1.63,0.83-2.86,1.41-4.09C361.04-162.78,360.39-165.21,360.18-166.58z"/>
	<ellipse class="st2" cx="368.76" cy="-169.33" rx="2.43" ry="1.92"/>
	<path class="st7" d="M483.24-290.65c0,0,5.8,9.38,1.97,22.96c0,0-2.59,8.27-7.65,14.56c-5.06,6.29-13.45,14.93-15.43,28.76
		s5.8,22.96,8.27,25.92c0,0-2.96-10-0.62-17.28c1.68-5.23,5.09-9.69,7.19-12.16c0.94-1.1,1.94-2.13,3.01-3.1
		c2.79-2.53,9.22-8.41,11.27-10.78c1.78-2.05,8.02-7.04,7.65-18.14c0,0-0.03-0.66-0.09-1.71c-0.59-9.04-4.22-17.66-10.42-24.25
		C486.89-287.48,485.17-289.1,483.24-290.65z"/>
	<path class="st8" d="M503.08-262.96c1.7,1.71,4.82,5.31,6.49,10.85c0.76,2.53,2.1,8.38,0,14.91c-1.68,5.22-4.05,9.11-8.91,12.4
		c-6.29,4.26-13.87,8.43-18.11,14.72c-2.07,3.07-4.3,8.18-3.78,16.66c-6.97-4.16-5.28-18.94-3.39-23.53
		c2.33-5.66,7.99-10.84,15.3-17.53c2.11-1.94,6.12-5.45,9.49-11.23c1.74-2.99,2.43-5.07,2.81-6.58
		C504.11-256.79,503.59-260.66,503.08-262.96z"/>
	<path class="st7" d="M516.71-249.64c1.92,2.53,4.93,7.15,6.46,13.64c0.6,2.52,2,8.79,0,16.39c-0.72,2.73-7.45,16.49-11.79,16.94
		c-2.45,0.25-5.64,0.45-6.84,0.77c-1.29,0.35-10.11,4.85-12.58,8.83c-0.19,0.3-0.5,0.5-0.86,0.5l-7.05,0
		c-0.52-12.23,6.01-17.52,8.16-19.26c10.99-8.88,17.96-9.74,23.09-22.53C516.3-236.86,517.5-246.02,516.71-249.64z"/>
	<path class="st8" d="M455.14-251.7c0.01-0.04,0.05-0.07,0.09-0.04c1.49,1.03,4.51,3.44,5.63,7.48c0.67,2.43,1.06,4.65,0,7
		c-1.77,3.93-2.5,6.91-3.34,10.8c-1.04,4.82-0.33,8.9,0,11c0.4,2.53,1.02,4.63,1.58,6.2c0.02,0.06-0.07,0.1-0.11,0.05
		c-3.73-4.78-4.65-8.09-5.49-10.75c-1.88-5.93-2.03-13.68,0.1-23.12C454.27-246.05,454.56-248.79,455.14-251.7z"/>
	<path class="st7" d="M462.88-260.17c0.78,0.36,3.15,2.53,3.95,4.3c0.17,0.37,0.55,2.04-0.03,3.35c-0.29,0.67-0.94,1.47-2.56,1.52
		c-1.6,0.05-2.74-1.24-2.74-2.44c0-1.42,0.51-1.75,1.05-3.17C463.09-258.03,463.06-259.26,462.88-260.17z"/>
	<path class="st8" d="M470.07-273.25c1.13,0.57,5.42,4.41,6.27,7.16c0.09,0.29,0.56,2.45-0.36,4.37c-0.47,0.97-1.47,2.13-3.87,2.12
		c-2.37-0.01-3.25-1.99-3.53-3.73c-0.26-1.63,0.83-2.86,1.41-4.09C470.93-269.46,470.28-271.89,470.07-273.25z"/>
	<ellipse class="st7" cx="478.65" cy="-276" rx="2.43" ry="1.92"/>
	<path class="st9" d="M497.78-548.87c0,0,5.8,9.38,1.97,22.96c0,0-2.59,8.27-7.65,14.56c-5.06,6.29-13.45,14.93-15.43,28.76
		c-1.97,13.82,5.8,22.96,8.27,25.92c0,0-2.96-10-0.62-17.28c1.68-5.23,5.09-9.69,7.19-12.16c0.94-1.1,1.94-2.13,3.01-3.1
		c2.79-2.53,9.22-8.41,11.27-10.78c1.78-2.05,8.02-7.04,7.65-18.14c0,0-0.03-0.66-0.09-1.71c-0.59-9.04-4.22-17.66-10.42-24.25
		C501.44-545.7,499.72-547.33,497.78-548.87z"/>
	<path class="st9" d="M517.63-521.18c1.7,1.71,4.82,5.31,6.49,10.85c0.76,2.53,2.1,8.38,0,14.91c-1.68,5.22-4.05,9.11-8.91,12.4
		c-6.29,4.26-13.87,8.43-18.11,14.72c-2.07,3.07-4.3,8.18-3.78,16.66c-6.97-4.16-5.28-18.94-3.39-23.53
		c2.33-5.66,7.99-10.84,15.3-17.53c2.11-1.94,6.12-5.45,9.49-11.23c1.74-2.99,2.43-5.07,2.81-6.58
		C518.66-515.01,518.14-518.89,517.63-521.18z"/>
	<path class="st9" d="M531.26-507.87c1.93,2.53,4.93,7.15,6.46,13.64c0.6,2.52,2,8.79,0,16.39c-0.72,2.73-7.45,16.49-11.79,16.94
		c-2.45,0.25-5.64,0.45-6.84,0.77c-1.29,0.35-10.11,4.85-12.58,8.83c-0.19,0.3-0.5,0.5-0.86,0.5h-7.05
		c-0.52-12.23,6.01-17.52,8.16-19.26c10.99-8.88,17.96-9.74,23.09-22.53C530.85-495.08,532.05-504.24,531.26-507.87z"/>
	<path class="st9" d="M469.68-509.92c0.01-0.04,0.05-0.07,0.09-0.04c1.49,1.03,4.51,3.44,5.63,7.48c0.67,2.43,1.06,4.65,0,7
		c-1.77,3.93-2.5,6.91-3.34,10.8c-1.04,4.82-0.33,8.9,0,11c0.4,2.53,1.02,4.63,1.58,6.2c0.02,0.06-0.07,0.1-0.11,0.05
		c-3.73-4.78-4.65-8.09-5.49-10.75c-1.88-5.93-2.03-13.68,0.1-23.12C468.81-504.27,469.11-507.01,469.68-509.92z"/>
	<path class="st9" d="M477.43-518.4c0.78,0.36,3.15,2.53,3.95,4.3c0.17,0.37,0.55,2.04-0.03,3.35c-0.29,0.67-0.94,1.47-2.56,1.52
		c-1.6,0.05-2.74-1.24-2.74-2.44c0-1.42,0.51-1.75,1.05-3.17C477.64-516.26,477.6-517.48,477.43-518.4z"/>
	<path class="st9" d="M484.61-531.48c1.13,0.57,5.42,4.41,6.27,7.16c0.09,0.29,0.56,2.45-0.36,4.37c-0.47,0.97-1.47,2.13-3.87,2.12
		c-2.37-0.01-3.25-1.99-3.53-3.73c-0.26-1.63,0.83-2.86,1.41-4.09C485.47-527.68,484.83-530.11,484.61-531.48z"/>
	<ellipse class="st9" cx="493.19" cy="-534.23" rx="2.43" ry="1.92"/>
	<path class="st10" d="M587.48-293.58c0,0,5.8,9.38,1.97,22.96c0,0-2.59,8.27-7.65,14.56c-5.06,6.29-13.45,14.93-15.43,28.76
		c-1.97,13.82,5.8,22.96,8.27,25.92c0,0-2.96-10-0.62-17.28c1.68-5.23,5.09-9.69,7.19-12.16c0.94-1.1,1.94-2.13,3.01-3.1
		c2.79-2.53,9.22-8.41,11.27-10.78c1.78-2.05,8.02-7.04,7.65-18.14c0,0-0.03-0.66-0.09-1.71c-0.59-9.04-4.22-17.66-10.42-24.25
		C591.13-290.41,589.41-292.04,587.48-293.58z"/>
	<path class="st11" d="M607.33-265.89c1.7,1.71,4.82,5.31,6.49,10.85c0.76,2.53,2.1,8.38,0,14.91c-1.68,5.22-4.05,9.11-8.91,12.4
		c-6.29,4.26-13.87,8.43-18.11,14.72c-2.07,3.07-4.3,8.18-3.78,16.66c-6.97-4.16-5.28-18.94-3.39-23.53
		c2.33-5.66,7.99-10.84,15.3-17.53c2.11-1.94,6.12-5.45,9.49-11.23c1.74-2.99,2.43-5.07,2.81-6.58
		C608.35-259.73,607.83-263.6,607.33-265.89z"/>
	<path class="st10" d="M620.95-252.58c1.92,2.53,4.93,7.15,6.46,13.64c0.6,2.52,2,8.79,0,16.39c-0.72,2.73-7.45,16.49-11.79,16.94
		c-2.45,0.25-5.64,0.45-6.84,0.77c-1.29,0.35-10.11,4.85-12.58,8.83c-0.19,0.3-0.5,0.5-0.86,0.5h-7.05
		c-0.52-12.23,6.01-17.52,8.16-19.26c10.99-8.88,17.96-9.74,23.09-22.53C620.54-239.79,621.74-248.95,620.95-252.58z"/>
	<path class="st11" d="M559.38-254.63c0.01-0.04,0.05-0.07,0.09-0.04c1.49,1.03,4.51,3.44,5.63,7.48c0.67,2.43,1.06,4.65,0,7
		c-1.77,3.93-2.5,6.91-3.34,10.8c-1.04,4.82-0.33,8.9,0,11c0.4,2.53,1.02,4.63,1.58,6.2c0.02,0.06-0.07,0.1-0.11,0.05
		c-3.73-4.78-4.65-8.09-5.49-10.75c-1.88-5.93-2.03-13.68,0.1-23.12C558.51-248.98,558.8-251.72,559.38-254.63z"/>
	<path class="st10" d="M567.12-263.11c0.78,0.36,3.15,2.53,3.95,4.3c0.17,0.37,0.55,2.04-0.03,3.35c-0.29,0.67-0.94,1.47-2.56,1.52
		c-1.6,0.05-2.74-1.24-2.74-2.44c0-1.42,0.51-1.75,1.05-3.17C567.33-260.97,567.3-262.19,567.12-263.11z"/>
	<path class="st11" d="M574.31-276.19c1.13,0.57,5.42,4.41,6.27,7.16c0.09,0.29,0.56,2.45-0.36,4.37c-0.47,0.97-1.47,2.13-3.87,2.12
		c-2.37-0.01-3.25-1.99-3.53-3.73c-0.26-1.63,0.83-2.86,1.41-4.09C575.17-272.39,574.52-274.82,574.31-276.19z"/>
	<ellipse class="st10" cx="582.89" cy="-278.94" rx="2.43" ry="1.92"/>
	<path class="st10" d="M688.6-295.25c0,0,5.8,9.38,1.97,22.96c0,0-2.59,8.27-7.65,14.56c-5.06,6.29-13.45,14.93-15.43,28.76
		c-1.97,13.82,5.8,22.96,8.27,25.92c0,0-2.96-10-0.62-17.28c1.68-5.23,5.09-9.69,7.19-12.16c0.94-1.1,1.94-2.13,3.01-3.1
		c2.79-2.53,9.22-8.41,11.27-10.78c1.78-2.05,8.02-7.04,7.65-18.14c0,0-0.03-0.66-0.09-1.71c-0.59-9.04-4.22-17.66-10.42-24.25
		C692.26-292.08,690.54-293.71,688.6-295.25z"/>
	<path class="st12" d="M708.45-267.56c1.7,1.71,4.82,5.31,6.49,10.85c0.76,2.53,2.1,8.38,0,14.91c-1.68,5.22-4.05,9.11-8.91,12.4
		c-6.29,4.26-13.87,8.43-18.11,14.72c-2.07,3.07-4.3,8.18-3.78,16.66c-6.97-4.16-5.28-18.94-3.39-23.53
		c2.33-5.66,7.99-10.84,15.3-17.53c2.11-1.94,6.12-5.45,9.49-11.23c1.74-2.99,2.43-5.07,2.81-6.58
		C709.48-261.39,708.96-265.27,708.45-267.56z"/>
	<path class="st10" d="M722.08-254.24c1.92,2.53,4.93,7.15,6.46,13.64c0.6,2.52,2,8.79,0,16.39c-0.72,2.73-7.45,16.49-11.79,16.94
		c-2.45,0.25-5.64,0.45-6.84,0.77c-1.29,0.35-10.11,4.85-12.58,8.83c-0.19,0.3-0.5,0.5-0.86,0.5h-7.05
		c-0.52-12.23,6.01-17.52,8.16-19.26c10.99-8.88,17.96-9.74,23.09-22.53C721.67-241.46,722.87-250.62,722.08-254.24z"/>
	<path class="st12" d="M660.51-256.3c0.01-0.04,0.05-0.07,0.09-0.04c1.49,1.03,4.51,3.44,5.63,7.48c0.67,2.43,1.06,4.65,0,7
		c-1.77,3.93-2.5,6.91-3.34,10.8c-1.04,4.82-0.33,8.9,0,11c0.4,2.53,1.02,4.63,1.58,6.2c0.02,0.06-0.07,0.1-0.11,0.05
		c-3.73-4.78-4.65-8.09-5.49-10.75c-1.88-5.93-2.03-13.68,0.1-23.12C659.63-250.65,659.93-253.39,660.51-256.3z"/>
	<path class="st10" d="M668.25-264.77c0.78,0.36,3.15,2.53,3.95,4.3c0.17,0.37,0.55,2.04-0.03,3.35c-0.29,0.67-0.94,1.47-2.56,1.52
		c-1.6,0.05-2.74-1.24-2.74-2.44c0-1.42,0.51-1.75,1.05-3.17C668.46-262.63,668.43-263.86,668.25-264.77z"/>
	<path class="st12" d="M675.43-277.85c1.13,0.57,5.42,4.41,6.27,7.16c0.09,0.29,0.56,2.45-0.36,4.37c-0.47,0.97-1.47,2.13-3.87,2.12
		c-2.37-0.01-3.25-1.99-3.53-3.73c-0.26-1.63,0.83-2.86,1.41-4.09C676.29-274.06,675.65-276.49,675.43-277.85z"/>
	<ellipse class="st10" cx="684.02" cy="-280.6" rx="2.43" ry="1.92"/>
	<path class="st2" d="M1288.68-415.96c-20.65,0-37.39,16.99-37.39,37.93c0,20.95,16.74,37.93,37.39,37.93
		c20.65,0,37.39-16.98,37.39-37.93C1326.07-398.97,1309.33-415.96,1288.68-415.96z M1288.36-342.28
		c-19.49,0-35.28-16.02-35.28-35.79c0-19.77,15.8-35.79,35.28-35.79c19.49,0,35.28,16.02,35.28,35.79
		C1323.65-358.3,1307.85-342.28,1288.36-342.28z"/>
	<g>
		<g>
			<path class="st6" d="M1652.92-517.31c-4.21,9.56-11.14,11.43-13.37,12.49c-2.58,1.23-10.02,3.8-13.24,4.9
				c-1.24,0.42-2.45,0.91-3.63,1.49c-0.83,0.41-1.83,0.92-2.93,1.57c-4.84-0.27-9.59,0.82-13.69,3.09c0.77-2.36,1.89-4.8,3.5-7.26
				c7.16-10.97,17.27-15.14,23.8-18.57c6.54-3.43,11.93-9.46,11.93-9.46c8.51-10.07,7.75-20.2,7.75-20.2
				c0.9,2.03,1.59,4.06,2.13,5.99c2.21,7.93,1.58,16.6-1.63,24.48C1653.17-517.88,1652.92-517.31,1652.92-517.31z"/>
			<path class="st6" d="M1652.62-494.85c-3.43,3.79-6.88,6.2-12.03,7.15c-0.66,0.12-1.33,0.24-2,0.35
				c-2.36-2.84-5.37-5.25-8.95-6.96c-1.2-0.57-2.41-1.04-3.64-1.42c3.08-1.33,6.65-2.55,10.65-3.93c2.45-0.84,7.03-2.32,12.03-5.95
				c2.58-1.88,3.97-3.39,4.88-4.52c2.7-3.38,3.86-6.86,4.39-8.99c0.64,2.08,1.65,6.31,0.72,11.63
				C1658.24-505.05,1656.92-499.59,1652.62-494.85z"/>
			<path class="st6" d="M1656.66-476.17c-1.2,1.53-7.32,7.04-11.9,9.34c0.77-5.78-0.67-11.64-3.89-16.54
				c5.34-1.17,9.69-2.67,15.22-8.26c1.75-1.77,6.24-9.19,7.01-12.57c0.56,2.85,1.17,7.88-0.12,14
				C1662.47-487.84,1661.17-481.97,1656.66-476.17z"/>
			<path class="st6" d="M1615.09-511.16c-2.98,2.66-4.77,4.92-7,7.9c-2.77,3.69-3.87,7.41-4.45,9.32c-0.17,0.55-0.32,1.08-0.45,1.6
				c-0.47,0.3-0.92,0.64-1.36,0.98c-0.3-3.53,0.15-5.9,0.47-7.91c0.92-5.73,3.94-12.36,9.45-19.55c1.73-2.26,3.07-4.47,4.71-6.72
				c0.02-0.03,0.07-0.04,0.09,0c0.76,1.43,2.15,4.61,1.4,8.45C1617.48-514.78,1616.88-512.75,1615.09-511.16z"/>
			<path class="st6" d="M1626.63-531.19c0.47,0.6,1.46,3.33,1.37,5.13c-0.02,0.38-0.39,1.93-1.38,2.83
				c-0.5,0.45-1.34,0.89-2.63,0.32c-1.28-0.56-1.65-2.08-1.17-3.1c0.58-1.21,1.11-1.29,2.11-2.29
				C1625.93-529.3,1626.4-530.35,1626.63-531.19z"/>
			<path class="st6" d="M1637.59-539.57c0.66,0.91,2.48,5.78,2.03,8.43c-0.05,0.28-0.55,2.29-2.06,3.57
				c-0.76,0.65-2.02,1.25-3.9,0.34c-1.86-0.9-1.75-2.91-1.27-4.49c0.45-1.48,1.81-2.11,2.76-2.93
				C1636.73-536.03,1637.21-538.33,1637.59-539.57z"/>
		</g>
		
			<ellipse transform="matrix(0.4313 -0.9022 0.9022 0.4313 1421.7769 1177.9554)" class="st6" cx="1645.24" cy="-538.77" rx="1.8" ry="2.12"/>
	</g>
	
		<ellipse transform="matrix(0.4313 -0.9022 0.9022 0.4313 1344.8544 1192.0476)" class="st2" cx="1617.96" cy="-470.71" rx="24.26" ry="25.46"/>
	
		<ellipse transform="matrix(0.6586 -0.7525 0.7525 0.6586 911.8701 1040.9282)" class="st13" cx="1603.15" cy="-484.52" rx="4.56" ry="2.36"/>
	<path class="st6" d="M1628.01-446.27c-4.41,2.32-9.62,3.37-15.04,2.71c-13.63-1.66-23.4-13.53-21.82-26.53
		c0.07-0.57,0.16-1.12,0.27-1.68c-0.61,13.22,9.81,24.98,24.07,26.72C1619.88-444.51,1624.14-444.97,1628.01-446.27z"/>
	<g>
		<g>
			<path class="st14" d="M1492.26-516.63c-4.21,9.56-11.14,11.43-13.37,12.49c-2.58,1.23-10.02,3.8-13.24,4.9
				c-1.24,0.42-2.45,0.91-3.63,1.49c-0.83,0.41-1.83,0.92-2.93,1.57c-4.84-0.27-9.59,0.82-13.69,3.09c0.77-2.36,1.89-4.8,3.5-7.26
				c7.16-10.97,17.27-15.14,23.8-18.57c6.54-3.43,11.93-9.46,11.93-9.46c8.51-10.07,7.75-20.2,7.75-20.2
				c0.9,2.03,1.59,4.06,2.13,5.99c2.21,7.93,1.58,16.6-1.63,24.48C1492.51-517.19,1492.26-516.63,1492.26-516.63z"/>
			<path class="st14" d="M1491.96-494.16c-3.43,3.79-6.88,6.2-12.03,7.15c-0.66,0.12-1.33,0.24-2,0.35
				c-2.36-2.84-5.37-5.25-8.95-6.96c-1.2-0.57-2.41-1.04-3.64-1.42c3.08-1.33,6.65-2.55,10.65-3.93c2.45-0.84,7.03-2.32,12.03-5.95
				c2.58-1.88,3.97-3.39,4.88-4.52c2.7-3.38,3.86-6.86,4.39-8.99c0.64,2.08,1.65,6.31,0.72,11.63
				C1497.58-504.37,1496.26-498.9,1491.96-494.16z"/>
			<path class="st14" d="M1496-475.49c-1.2,1.53-7.32,7.04-11.9,9.34c0.77-5.78-0.67-11.64-3.89-16.54
				c5.34-1.17,9.69-2.67,15.22-8.26c1.75-1.77,6.24-9.19,7.01-12.57c0.56,2.85,1.17,7.88-0.12,14
				C1501.81-487.16,1500.51-481.29,1496-475.49z"/>
			<path class="st14" d="M1454.43-510.47c-2.98,2.66-4.77,4.92-7,7.9c-2.77,3.69-3.87,7.41-4.46,9.32c-0.17,0.55-0.32,1.08-0.45,1.6
				c-0.47,0.3-0.92,0.64-1.36,0.98c-0.3-3.53,0.15-5.9,0.47-7.91c0.92-5.73,3.94-12.36,9.45-19.55c1.73-2.26,3.07-4.47,4.71-6.72
				c0.02-0.03,0.07-0.04,0.09,0c0.76,1.43,2.15,4.61,1.4,8.45C1456.82-514.1,1456.22-512.07,1454.43-510.47z"/>
			<path class="st14" d="M1465.97-530.5c0.47,0.6,1.46,3.33,1.37,5.13c-0.02,0.38-0.39,1.93-1.38,2.83
				c-0.5,0.45-1.34,0.89-2.63,0.32c-1.28-0.56-1.65-2.08-1.17-3.1c0.58-1.21,1.11-1.29,2.11-2.29
				C1465.27-528.61,1465.74-529.66,1465.97-530.5z"/>
			<path class="st14" d="M1476.93-538.89c0.66,0.91,2.48,5.78,2.03,8.43c-0.05,0.28-0.55,2.29-2.06,3.57
				c-0.76,0.65-2.02,1.25-3.9,0.34c-1.86-0.9-1.75-2.91-1.27-4.49c0.45-1.48,1.81-2.11,2.76-2.93
				C1476.07-535.34,1476.55-537.65,1476.93-538.89z"/>
		</g>
		
			<ellipse transform="matrix(0.4313 -0.9022 0.9022 0.4313 1329.7885 1033.394)" class="st14" cx="1484.58" cy="-538.09" rx="1.8" ry="2.12"/>
	</g>
	<linearGradient id="SVGID_1_" gradientUnits="userSpaceOnUse" x1="1427.4431" y1="-445.114" x2="1472.1405" y2="-482.4154">
		<stop  offset="0.0279" style="stop-color:#F4DF46"/>
		<stop  offset="0.7021" style="stop-color:#F1934D"/>
		<stop  offset="1" style="stop-color:#E3312D"/>
	</linearGradient>
	<path class="st15" d="M1434.32-481.01c5.78-12.09,20.75-16.97,33.44-10.91s18.29,20.78,12.51,32.87
		c-5.78,12.09-20.75,16.97-33.44,10.91C1434.15-454.2,1428.55-468.92,1434.32-481.01z"/>
	
		<ellipse transform="matrix(0.7071 -0.7071 0.7071 0.7071 765.3279 877.9916)" class="st16" cx="1442.49" cy="-484.84" rx="4.56" ry="2.36"/>
	<path class="st14" d="M1466.35-444.58c-4.41,2.32-9.62,3.37-15.04,2.71c-13.63-1.66-23.4-13.53-21.82-26.53
		c0.07-0.57,0.16-1.12,0.27-1.68c-0.61,13.22,9.81,24.98,24.07,26.72C1458.22-442.82,1462.48-443.29,1466.35-444.58z"/>
</g>
<g id="Capa_6">
</g>
<g id="Capa_7">
	
		<text transform="matrix(1 0 0 1 902.9182 -450.1218)" class="st10" style="font-family:'BerlinSansFBDemi-Bold'; font-size:44.4816px;">IGNIS</text>
	
		<text transform="matrix(1.1159 0 0 1 1063.5157 -449.8161)" class="st10" style="font-family:'TwCenMT-CondensedBold'; font-size:47.2829px;">IGNIS</text>
	<path class="st9" d="M1259.87-590.47c0,0,6.09,9.84,2.07,24.08c0,0-2.72,8.68-8.03,15.28s-14.11,15.67-16.18,30.17
		c-2.07,14.5,6.09,24.08,8.68,27.19c0,0-3.11-10.49-0.65-18.13c1.77-5.49,5.34-10.17,7.54-12.76c0.98-1.15,2.04-2.23,3.16-3.25
		c2.93-2.66,9.67-8.83,11.82-11.31c1.87-2.15,8.42-7.38,8.03-19.03c0,0-0.03-0.69-0.1-1.79c-0.62-9.48-4.42-18.52-10.93-25.44
		C1263.71-587.14,1261.9-588.85,1259.87-590.47z"/>
	<path class="st9" d="M1280.69-561.42c1.78,1.79,5.05,5.57,6.81,11.38c0.8,2.65,2.21,8.79,0,15.64c-1.76,5.47-4.25,9.55-9.35,13
		c-6.6,4.47-14.55,8.85-19,15.44c-2.17,3.22-4.51,8.59-3.96,17.47c-7.31-4.37-5.54-19.87-3.56-24.69
		c2.44-5.93,8.38-11.37,16.05-18.39c2.22-2.03,6.42-5.72,9.96-11.78c1.82-3.13,2.55-5.32,2.95-6.91
		C1281.77-554.95,1281.22-559.01,1280.69-561.42z"/>
	<path class="st9" d="M1294.99-547.45c2.02,2.65,5.17,7.5,6.78,14.31c0.62,2.65,2.09,9.22,0,17.19
		c-0.75,2.86-9.04,17.96-12.37,17.77c-2.58-0.15-5.82,0.01-7.12,0.15c-3.89,0.41-11.1,6.04-13.45,10.26
		c-0.07,0.12-0.19,0.19-0.32,0.19h-7.78c-0.55-12.83,6.3-18.38,8.56-20.21c11.53-9.31,18.84-10.22,24.22-23.64
		C1294.56-534.04,1295.82-543.65,1294.99-547.45z"/>
	<path class="st9" d="M1230.4-549.6c0.01-0.04,0.06-0.07,0.09-0.04c1.57,1.08,4.73,3.61,5.9,7.85c0.71,2.55,1.11,4.88,0,7.35
		c-1.85,4.12-2.62,7.24-3.5,11.33c-1.09,5.06-0.35,9.33,0,11.54c0.42,2.65,1.07,4.86,1.66,6.51c0.02,0.07-0.07,0.1-0.12,0.05
		c-3.91-5.02-4.87-8.48-5.76-11.28c-1.97-6.22-2.13-14.35,0.11-24.25C1229.48-543.68,1229.79-546.55,1230.4-549.6z"/>
	<path class="st9" d="M1238.52-558.5c0.82,0.37,3.3,2.65,4.15,4.51c0.18,0.39,0.58,2.14-0.03,3.52c-0.31,0.7-0.99,1.54-2.68,1.59
		c-1.68,0.05-2.87-1.31-2.87-2.56c0-1.49,0.54-1.84,1.1-3.33C1238.74-556.25,1238.71-557.54,1238.52-558.5z"/>
	<path class="st9" d="M1246.06-572.22c1.19,0.6,5.68,4.63,6.57,7.52c0.09,0.3,0.59,2.57-0.38,4.59c-0.49,1.02-1.55,2.24-4.06,2.22
		c-2.49-0.01-3.41-2.09-3.7-3.91c-0.28-1.71,0.88-3,1.48-4.29C1246.96-568.23,1246.28-570.79,1246.06-572.22z"/>
	<ellipse class="st9" cx="1255.06" cy="-575.1" rx="2.55" ry="2.01"/>
	<path class="st9" d="M1110.88-589.38c0,0,6.09,9.84,2.07,24.08c0,0-2.72,8.68-8.03,15.28s-14.11,15.67-16.18,30.17
		c-2.07,14.5,6.09,24.08,8.68,27.19c0,0-3.11-10.49-0.65-18.13c1.77-5.49,5.34-10.17,7.54-12.76c0.98-1.15,2.04-2.23,3.16-3.25
		c2.93-2.66,9.67-8.83,11.82-11.31c1.87-2.15,8.42-7.38,8.03-19.03c0,0-0.03-0.69-0.1-1.79c-0.62-9.48-4.42-18.52-10.93-25.44
		C1114.71-586.06,1112.91-587.76,1110.88-589.38z"/>
	<path class="st9" d="M1131.7-560.33c1.78,1.79,5.05,5.57,6.81,11.38c0.8,2.65,2.21,8.79,0,15.64c-1.76,5.47-4.25,9.55-9.35,13
		c-6.6,4.47-14.55,8.85-19,15.44c-2.17,3.22-4.51,8.59-3.96,17.47c-7.31-4.37-5.54-19.87-3.56-24.69
		c2.44-5.93,8.38-11.37,16.05-18.39c2.22-2.03,6.42-5.72,9.96-11.78c1.82-3.13,2.55-5.32,2.95-6.91
		C1132.78-553.86,1132.23-557.93,1131.7-560.33z"/>
	<path class="st9" d="M1146-546.37c2.02,2.65,5.17,7.5,6.78,14.31c0.63,2.65,2.09,9.22,0,17.19c-0.75,2.86-9.04,17.96-12.37,17.77
		c-2.58-0.15-5.82,0.01-7.12,0.15c-3.89,0.41-11.1,6.04-13.45,10.26c-0.07,0.12-0.19,0.19-0.32,0.19l-7.78,0
		c-0.55-12.83,6.3-18.38,8.56-20.21c11.53-9.31,18.84-10.22,24.22-23.64C1145.57-532.96,1146.82-542.57,1146-546.37z"/>
	<path class="st9" d="M1081.4-548.52c0.01-0.04,0.06-0.07,0.09-0.04c1.57,1.08,4.73,3.61,5.9,7.85c0.71,2.55,1.11,4.88,0,7.35
		c-1.85,4.12-2.62,7.24-3.5,11.33c-1.09,5.06-0.35,9.33,0,11.54c0.42,2.65,1.07,4.86,1.66,6.51c0.02,0.07-0.07,0.1-0.12,0.05
		c-3.91-5.02-4.87-8.48-5.76-11.28c-1.97-6.22-2.13-14.35,0.11-24.25C1080.49-542.59,1080.8-545.47,1081.4-548.52z"/>
	<path class="st9" d="M1089.53-557.41c0.82,0.37,3.3,2.65,4.15,4.51c0.18,0.39,0.58,2.14-0.03,3.52c-0.31,0.7-0.99,1.54-2.68,1.59
		c-1.68,0.05-2.87-1.31-2.87-2.56c0-1.49,0.54-1.84,1.1-3.33C1089.75-555.17,1089.71-556.45,1089.53-557.41z"/>
	<path class="st9" d="M1097.06-571.13c1.19,0.6,5.68,4.63,6.57,7.52c0.09,0.3,0.59,2.57-0.38,4.59c-0.49,1.02-1.55,2.24-4.06,2.22
		c-2.49-0.01-3.41-2.09-3.7-3.91c-0.28-1.71,0.88-3,1.48-4.29C1097.97-567.15,1097.29-569.7,1097.06-571.13z"/>
	<ellipse class="st9" cx="1106.07" cy="-574.02" rx="2.55" ry="2.01"/>
	<path class="st9" d="M952.61-592.54c0,0,6.09,9.84,2.07,24.08c0,0-2.72,8.67-8.03,15.28s-14.11,15.67-16.18,30.17
		c-2.07,14.5,6.09,24.08,8.68,27.19c0,0-3.11-10.49-0.65-18.13c1.77-5.49,5.34-10.17,7.54-12.76c0.98-1.15,2.04-2.23,3.16-3.25
		c2.93-2.66,9.67-8.83,11.82-11.31c1.87-2.15,8.42-7.38,8.03-19.03c0,0-0.03-0.69-0.1-1.79c-0.62-9.48-4.42-18.52-10.93-25.44
		C956.45-589.22,954.64-590.93,952.61-592.54z"/>
	<path class="st9" d="M973.43-563.5c1.78,1.79,5.05,5.57,6.81,11.38c0.8,2.65,2.21,8.79,0,15.64c-1.76,5.47-4.25,9.55-9.35,13
		c-6.6,4.47-14.55,8.85-19,15.44c-2.17,3.22-4.51,8.59-3.96,17.47c-7.31-4.37-5.54-19.87-3.56-24.69
		c2.44-5.93,8.38-11.37,16.05-18.39c2.22-2.03,6.42-5.72,9.96-11.78c1.82-3.13,2.55-5.32,2.95-6.91
		C974.51-557.03,973.96-561.09,973.43-563.5z"/>
	<path class="st9" d="M987.73-549.53c2.02,2.65,5.17,7.5,6.78,14.31c0.62,2.65,2.09,9.22,0,17.19c-0.75,2.86-9.04,17.96-12.37,17.77
		c-2.58-0.15-5.82,0.01-7.12,0.15c-3.89,0.41-11.1,6.04-13.45,10.26c-0.07,0.12-0.19,0.19-0.32,0.19h-7.78
		c-0.55-12.83,6.3-18.38,8.56-20.21c11.53-9.31,18.84-10.22,24.22-23.64C987.3-536.12,988.56-545.73,987.73-549.53z"/>
	<path class="st9" d="M923.14-551.68c0.01-0.04,0.06-0.07,0.09-0.04c1.57,1.08,4.73,3.61,5.9,7.85c0.71,2.55,1.11,4.88,0,7.35
		c-1.85,4.12-2.62,7.24-3.5,11.33c-1.09,5.06-0.35,9.33,0,11.54c0.42,2.65,1.07,4.86,1.66,6.51c0.02,0.07-0.07,0.1-0.12,0.05
		c-3.91-5.02-4.87-8.48-5.76-11.28c-1.97-6.22-2.13-14.35,0.11-24.25C922.22-545.76,922.53-548.63,923.14-551.68z"/>
	<path class="st9" d="M931.26-560.58c0.82,0.37,3.3,2.65,4.15,4.51c0.18,0.39,0.58,2.14-0.03,3.52c-0.31,0.7-0.99,1.54-2.68,1.59
		c-1.68,0.05-2.87-1.31-2.87-2.56c0-1.49,0.54-1.83,1.1-3.33C931.48-558.33,931.44-559.62,931.26-560.58z"/>
	<path class="st9" d="M938.8-574.3c1.19,0.6,5.68,4.63,6.57,7.52c0.09,0.3,0.59,2.57-0.38,4.59c-0.49,1.02-1.55,2.24-4.06,2.22
		c-2.49-0.01-3.41-2.09-3.7-3.91c-0.28-1.71,0.88-3,1.48-4.29C939.7-570.31,939.02-572.87,938.8-574.3z"/>
	<ellipse class="st9" cx="947.8" cy="-577.18" rx="2.55" ry="2.01"/>
	
		<text transform="matrix(1 0 0 1 898.9166 -177.937)" class="st2" style="font-family:'BerlinSansFBDemi-Bold'; font-size:44.4816px;">IGNIS</text>
	<path class="st2" d="M1233.85-91.95c0,1.62,0.04,4.04,0.13,7.29s0.13,5.67,0.13,7.29c0,0.27-0.07,0.45-0.2,0.51
		c-0.03,0.01-0.22,0.04-0.57,0.08c-0.94,0.11-2.2,0.16-3.78,0.16c-2.11,0-3.46-0.05-4.04-0.16c-0.42-0.08-0.63-0.29-0.63-0.64
		c0,0.22,0.06-0.99,0.2-3.61c0.26-5.54,0.39-9.19,0.39-10.92c0-1.46-0.05-3.66-0.15-6.59c-0.1-2.93-0.15-5.13-0.15-6.59
		c0-0.3,0.17-0.45,0.5-0.45c0.45,0,1.13,0.02,2.03,0.06c0.9,0.04,1.58,0.06,2.03,0.06c0.45,0,1.11-0.02,1.99-0.06
		s1.54-0.06,1.99-0.06c0.42,0,0.63,0.15,0.63,0.45c0,1.46-0.08,3.66-0.25,6.59C1233.94-95.62,1233.85-93.42,1233.85-91.95z"/>
	<path class="st2" d="M1266.87-77.44c0.03,0.37-0.17,0.55-0.61,0.55c-0.28,0-1.07-0.15-2.38-0.45c-1.31-0.3-2.12-0.51-2.42-0.62
		c-3.03,1.12-5.93,1.68-8.71,1.68c-4.47,0-8.15-1.41-11.01-4.23c-2.84-2.78-4.26-6.29-4.26-10.53c0-4.34,1.38-7.94,4.13-10.8
		c2.84-2.96,6.52-4.43,11.06-4.43c2.2,0,4.27,0.4,6.21,1.19c2.1,0.88,3.75,2.11,4.95,3.7c0.25,0.33,0.37,0.56,0.37,0.7
		c0,0.44-0.65,1.42-1.94,2.95s-2.13,2.29-2.51,2.29c-0.09,0-0.42-0.28-1-0.84c-0.71-0.67-1.43-1.19-2.17-1.56
		c-1.1-0.56-2.32-0.84-3.65-0.84c-2.17,0-3.89,0.77-5.17,2.3c-1.19,1.41-1.78,3.17-1.78,5.28c0,2.23,0.62,4,1.85,5.3
		c1.27,1.34,3.08,2.01,5.41,2.01c1.48,0,3.13-0.35,4.95-1.05c-0.04-0.45-0.17-1.6-0.39-3.45c-0.19-1.42-0.28-2.57-0.28-3.45
		c0-0.26,0.09-0.42,0.28-0.47c0.07-0.03,0.19-0.04,0.35-0.04c0.42,0,1.05,0.04,1.9,0.11c0.85,0.08,1.49,0.11,1.92,0.11
		c0.46,0,1.16-0.03,2.08-0.09c0.93-0.06,1.62-0.09,2.08-0.09c0.36,0,0.54,0.23,0.54,0.68c0,0.66-0.04,1.65-0.12,2.98
		c-0.08,1.33-0.12,2.32-0.12,2.98c0,1.77,0.14,4.41,0.41,7.93L1266.87-77.44z"/>
	<path class="st2" d="M1298.97-104.95c0,1.56-0.07,3.91-0.21,7.03s-0.21,5.48-0.21,7.05v13.53c0,0.37-0.21,0.55-0.63,0.55
		c-0.35,0-0.87,0.01-1.58,0.04s-1.23,0.04-1.57,0.04c-0.38,0-0.94-0.03-1.69-0.08s-1.32-0.08-1.69-0.08c-0.26,0-0.57-0.23-0.93-0.68
		c-1.04-1.33-3.39-4.27-7.04-8.83c-1-1.27-2.52-3.15-4.56-5.63c-0.06-0.08-0.17-0.16-0.33-0.25c-0.12,0.1-0.17,0.25-0.17,0.45
		c0,1.59,0.05,3.97,0.14,7.15c0.09,3.18,0.14,5.56,0.14,7.15c0,0.48-0.2,0.72-0.59,0.72h-7.51c-0.42,0-0.63-0.21-0.63-0.64
		c0-1.48,0.08-3.71,0.23-6.69c0.15-2.98,0.23-5.22,0.23-6.71c0-1.57-0.07-3.93-0.21-7.06s-0.21-5.48-0.21-7.04
		c0-0.3,0.28-0.45,0.85-0.45c0.84,0,1.88-0.05,3.11-0.16c0.29-0.03,0.86-0.12,1.72-0.27c0.72-0.12,1.3-0.18,1.72-0.18
		c0.17,0,0.44,0.23,0.8,0.7l8.1,10.49c0.72,0.94,1.82,2.33,3.28,4.15c0.36,0.42,0.67,0.64,0.93,0.64c0.19,0,0.28-0.53,0.28-1.6
		c0-1.44-0.08-3.6-0.25-6.49c-0.17-2.89-0.25-5.06-0.25-6.51c0-0.51,0.15-0.76,0.46-0.76c0.87,0,2.18-0.03,3.93-0.1
		s3.06-0.1,3.93-0.1C1298.83-105.59,1298.97-105.38,1298.97-104.95z"/>
	<path class="st2" d="M1311.83-91.95c0,1.62,0.04,4.04,0.13,7.29s0.13,5.67,0.13,7.29c0,0.27-0.07,0.45-0.2,0.51
		c-0.03,0.01-0.22,0.04-0.57,0.08c-0.94,0.11-2.2,0.16-3.78,0.16c-2.11,0-3.46-0.05-4.04-0.16c-0.42-0.08-0.63-0.29-0.63-0.64
		c0,0.22,0.06-0.99,0.2-3.61c0.26-5.54,0.39-9.19,0.39-10.92c0-1.46-0.05-3.66-0.15-6.59c-0.1-2.93-0.15-5.13-0.15-6.59
		c0-0.3,0.17-0.45,0.5-0.45c0.45,0,1.13,0.02,2.03,0.06c0.9,0.04,1.58,0.06,2.03,0.06c0.45,0,1.11-0.02,1.99-0.06
		s1.54-0.06,1.99-0.06c0.42,0,0.63,0.15,0.63,0.45c0,1.46-0.08,3.66-0.25,6.59C1311.91-95.62,1311.83-93.42,1311.83-91.95z"/>
	<path class="st2" d="M1331.07-86.23c0,2.78-1.24,5.16-3.71,7.15c-2.17,1.75-4.81,2.87-7.93,3.35c-0.12,0.01-0.21,0.02-0.28,0.02
		c-0.33,0-1.07-0.96-2.21-2.88c-1.14-1.92-1.72-3.1-1.72-3.52c0-0.15,0.11-0.25,0.33-0.29c2.1-0.45,3.49-0.83,4.17-1.15
		c1.51-0.71,2.26-1.77,2.26-3.16c0-0.89-0.49-1.88-1.48-2.98c-1.71-1.86-2.64-2.9-2.78-3.1c-1-1.42-1.5-3-1.5-4.72
		c0-2.5,1.22-4.59,3.67-6.24c2-1.37,4.45-2.26,7.36-2.67c0.16-0.01,0.28-0.02,0.37-0.02c0.22,0,0.39,0.17,0.52,0.49
		c0.38,1,1.25,2.81,2.63,5.42c0.04,0.08,0.07,0.15,0.07,0.21c0,0.23-0.13,0.35-0.39,0.35c-0.12,0-0.31-0.02-0.59-0.06
		c-0.28-0.04-0.49-0.06-0.63-0.06c-1.04,0-1.96,0.23-2.74,0.68c-0.94,0.52-1.41,1.25-1.41,2.18c0,0.83,0.52,1.86,1.56,3.08
		c1.84,2.19,2.8,3.34,2.89,3.45C1330.56-89.22,1331.07-87.72,1331.07-86.23z"/>
	
		<text transform="matrix(1 0 0 1 1565.8683 -401.1303)" class="st2" style="font-family:'BerlinSansFBDemi-Bold'; font-size:44.4816px;">IGNIS</text>
	
		<text transform="matrix(1 0 0 1 1405.2081 -400.446)" class="st14" style="font-family:'BerlinSansFBDemi-Bold'; font-size:44.4816px;">IGNIS</text>
	<path class="st2" d="M948.61-320.36c0,0,6.09,9.84,2.07,24.08c0,0-2.72,8.68-8.03,15.28c-5.31,6.6-14.11,15.67-16.18,30.17
		s6.09,24.08,8.68,27.19c0,0-3.11-10.49-0.65-18.13c1.77-5.49,5.34-10.17,7.54-12.76c0.98-1.15,2.04-2.23,3.16-3.25
		c2.93-2.66,9.67-8.83,11.82-11.31c1.87-2.15,8.42-7.38,8.03-19.03c0,0-0.03-0.69-0.1-1.79c-0.62-9.48-4.42-18.52-10.93-25.44
		C952.44-317.04,950.64-318.74,948.61-320.36z"/>
	<path class="st6" d="M969.43-291.31c1.78,1.79,5.05,5.57,6.81,11.38c0.8,2.65,2.21,8.79,0,15.64c-1.76,5.47-4.25,9.55-9.35,13
		c-6.6,4.47-14.55,8.85-19,15.44c-2.17,3.22-4.51,8.59-3.96,17.47c-7.31-4.37-5.54-19.87-3.56-24.69
		c2.44-5.93,8.38-11.37,16.05-18.39c2.22-2.03,6.42-5.72,9.96-11.78c1.82-3.13,2.55-5.32,2.95-6.91
		C970.51-284.84,969.96-288.91,969.43-291.31z"/>
	<path class="st2" d="M983.73-277.35c2.02,2.65,5.17,7.5,6.78,14.31c0.63,2.65,2.09,9.22,0,17.19c-0.75,2.86-9.04,17.96-12.37,17.77
		c-2.58-0.15-5.82,0.01-7.12,0.15c-3.89,0.41-11.1,6.04-13.45,10.26c-0.07,0.12-0.19,0.19-0.32,0.19l-7.78,0
		c-0.55-12.83,6.3-18.38,8.56-20.21c11.53-9.31,18.84-10.22,24.22-23.64C983.3-263.93,984.56-273.54,983.73-277.35z"/>
	<path class="st6" d="M919.13-279.5c0.01-0.04,0.06-0.07,0.09-0.04c1.57,1.08,4.73,3.61,5.9,7.85c0.71,2.55,1.11,4.88,0,7.35
		c-1.85,4.12-2.62,7.24-3.5,11.33c-1.09,5.06-0.35,9.33,0,11.54c0.42,2.65,1.07,4.86,1.66,6.51c0.02,0.07-0.07,0.1-0.12,0.05
		c-3.91-5.02-4.87-8.48-5.76-11.28c-1.97-6.22-2.13-14.35,0.11-24.25C918.22-273.57,918.53-276.45,919.13-279.5z"/>
	<path class="st2" d="M927.26-288.39c0.82,0.37,3.3,2.65,4.15,4.51c0.18,0.39,0.58,2.14-0.03,3.52c-0.31,0.7-0.99,1.54-2.68,1.59
		c-1.68,0.05-2.87-1.31-2.87-2.56c0-1.49,0.54-1.83,1.1-3.33C927.48-286.15,927.44-287.43,927.26-288.39z"/>
	<path class="st6" d="M934.79-302.11c1.19,0.6,5.68,4.63,6.57,7.52c0.09,0.3,0.59,2.57-0.38,4.59c-0.49,1.02-1.55,2.24-4.06,2.22
		c-2.49-0.01-3.41-2.09-3.7-3.91c-0.28-1.71,0.88-3,1.48-4.29C935.7-298.13,935.02-300.68,934.79-302.11z"/>
	<ellipse class="st2" cx="943.8" cy="-305" rx="2.55" ry="2.01"/>
	<path class="st2" d="M1309.03-156c0.77,0.46,2.98,3.01,3.61,4.95c0.13,0.41,0.33,2.19-0.43,3.49c-0.39,0.66-1.16,1.42-2.85,1.28
		c-1.67-0.14-2.7-1.62-2.56-2.87c0.17-1.49,0.74-1.76,1.47-3.18C1308.99-153.75,1309.1-155.03,1309.03-156z"/>
	<path class="st6" d="M1318.07-168.78c1.11,0.73,5.12,5.24,5.68,8.21c0.06,0.31,0.29,2.62-0.9,4.52c-0.6,0.96-1.79,2.05-4.28,1.75
		c-2.47-0.29-3.15-2.46-3.23-4.31c-0.08-1.73,1.21-2.88,1.95-4.09C1318.52-164.72,1318.13-167.33,1318.07-168.78z"/>
	
		<ellipse transform="matrix(0.1134 -0.9936 0.9936 0.1134 1346.3969 1167.5026)" class="st2" cx="1327.34" cy="-170.63" rx="2.01" ry="2.55"/>
	<g>
		<path class="st6" d="M1058.45-193.99c0,1.71,0.04,4.28,0.13,7.71s0.13,6,0.13,7.71c0,0.29-0.07,0.47-0.2,0.54
			c-0.03,0.01-0.22,0.04-0.57,0.09c-0.94,0.12-2.2,0.17-3.78,0.17c-2.11,0-3.46-0.06-4.04-0.17c-0.42-0.09-0.63-0.31-0.63-0.67
			c0,0.23,0.06-1.04,0.2-3.82c0.26-5.86,0.39-9.72,0.39-11.55c0-1.55-0.05-3.87-0.15-6.97c-0.1-3.1-0.15-5.42-0.15-6.97
			c0-0.32,0.17-0.48,0.5-0.48c0.45,0,1.13,0.02,2.03,0.07c0.9,0.04,1.58,0.07,2.03,0.07c0.45,0,1.11-0.02,1.99-0.07
			c0.88-0.04,1.54-0.07,1.99-0.07c0.42,0,0.63,0.16,0.63,0.48c0,1.55-0.08,3.87-0.25,6.97
			C1058.53-197.86,1058.45-195.54,1058.45-193.99z"/>
		<path class="st6" d="M1091.46-178.63c0.03,0.39-0.17,0.59-0.61,0.59c-0.28,0-1.07-0.16-2.38-0.48s-2.12-0.54-2.42-0.65
			c-3.03,1.19-5.93,1.78-8.71,1.78c-4.47,0-8.15-1.49-11.01-4.47c-2.84-2.94-4.26-6.65-4.26-11.14c0-4.59,1.38-8.4,4.13-11.42
			c2.84-3.13,6.52-4.69,11.06-4.69c2.2,0,4.27,0.42,6.21,1.26c2.1,0.93,3.75,2.23,4.95,3.91c0.25,0.35,0.37,0.59,0.37,0.74
			c0,0.46-0.65,1.5-1.94,3.12c-1.3,1.61-2.13,2.42-2.51,2.42c-0.09,0-0.42-0.3-1-0.89c-0.71-0.71-1.43-1.26-2.17-1.65
			c-1.1-0.59-2.32-0.89-3.65-0.89c-2.17,0-3.89,0.81-5.17,2.43c-1.19,1.49-1.78,3.35-1.78,5.58c0,2.36,0.62,4.23,1.85,5.6
			c1.27,1.42,3.08,2.13,5.41,2.13c1.48,0,3.13-0.37,4.95-1.11c-0.04-0.48-0.17-1.69-0.39-3.65c-0.19-1.51-0.28-2.72-0.28-3.65
			c0-0.28,0.09-0.44,0.28-0.5c0.07-0.03,0.19-0.04,0.35-0.04c0.42,0,1.05,0.04,1.9,0.12c0.85,0.08,1.49,0.12,1.92,0.12
			c0.46,0,1.16-0.03,2.08-0.1c0.93-0.06,1.62-0.1,2.08-0.1c0.36,0,0.54,0.24,0.54,0.72c0,0.7-0.04,1.75-0.12,3.15
			c-0.08,1.4-0.12,2.45-0.12,3.15c0,1.87,0.14,4.66,0.41,8.38L1091.46-178.63z"/>
		<path class="st6" d="M1123.56-207.74c0,1.65-0.07,4.13-0.21,7.44c-0.14,3.31-0.21,5.8-0.21,7.46v14.31c0,0.39-0.21,0.59-0.63,0.59
			c-0.35,0-0.87,0.01-1.58,0.04c-0.7,0.03-1.23,0.04-1.57,0.04c-0.38,0-0.94-0.03-1.69-0.09s-1.32-0.09-1.69-0.09
			c-0.26,0-0.57-0.24-0.93-0.72c-1.04-1.4-3.39-4.52-7.04-9.34c-1-1.35-2.52-3.33-4.56-5.95c-0.06-0.09-0.17-0.17-0.33-0.26
			c-0.12,0.1-0.17,0.26-0.17,0.48c0,1.68,0.05,4.2,0.14,7.56c0.09,3.36,0.14,5.88,0.14,7.56c0,0.51-0.2,0.76-0.59,0.76h-7.51
			c-0.42,0-0.63-0.22-0.63-0.67c0-1.56,0.08-3.92,0.23-7.08c0.15-3.16,0.23-5.52,0.23-7.1c0-1.67-0.07-4.16-0.21-7.47
			s-0.21-5.8-0.21-7.45c0-0.32,0.28-0.48,0.85-0.48c0.84,0,1.88-0.06,3.11-0.17c0.29-0.03,0.86-0.12,1.72-0.28
			c0.72-0.13,1.3-0.14,1.72-0.2c0.25-0.03,0.44,0.25,0.8,0.74l8.1,11.1c0.72,1,1.82,2.46,3.28,4.39c0.36,0.45,0.67,0.67,0.93,0.67
			c0.19,0,0.28-0.56,0.28-1.69c0-1.52-0.08-3.81-0.25-6.86c-0.17-3.05-0.25-5.35-0.25-6.88c0-0.54,0.15-0.8,0.46-0.8
			c0.87,0,2.18-0.04,3.93-0.11s3.06-0.11,3.93-0.11C1123.42-208.41,1123.56-208.19,1123.56-207.74z"/>
		<path class="st6" d="M1136.42-193.99c0,1.71,0.04,4.28,0.13,7.71s0.13,6,0.13,7.71c0,0.29-0.07,0.47-0.2,0.54
			c-0.03,0.01-0.22,0.04-0.57,0.09c-0.94,0.12-2.2,0.17-3.78,0.17c-2.11,0-3.46-0.06-4.04-0.17c-0.42-0.09-0.63-0.31-0.63-0.67
			c0,0.23,0.06-1.04,0.2-3.82c0.26-5.86,0.39-9.72,0.39-11.55c0-1.55-0.05-3.87-0.15-6.97c-0.1-3.1-0.15-5.42-0.15-6.97
			c0-0.32,0.17-0.48,0.5-0.48c0.45,0,1.13,0.02,2.03,0.07c0.9,0.04,1.58,0.07,2.03,0.07c0.45,0,1.11-0.02,1.99-0.07
			c0.88-0.04,1.54-0.07,1.99-0.07c0.42,0,0.63,0.16,0.63,0.48c0,1.55-0.08,3.87-0.25,6.97
			C1136.5-197.86,1136.42-195.54,1136.42-193.99z"/>
		<path class="st6" d="M1155.66-187.93c0,2.94-1.24,5.46-3.71,7.56c-2.17,1.85-4.81,3.03-7.93,3.54c-0.12,0.01-0.21,0.02-0.28,0.02
			c-0.33,0-1.07-1.02-2.21-3.05c-1.14-2.03-1.72-3.28-1.72-3.72c0-0.16,0.11-0.26,0.33-0.3c2.1-0.48,3.49-0.88,4.17-1.22
			c1.51-0.75,2.26-1.87,2.26-3.34c0-0.94-0.49-1.99-1.48-3.15c-1.71-1.97-2.64-3.06-2.78-3.28c-1-1.5-1.5-3.17-1.5-5
			c0-2.65,1.22-4.85,3.67-6.6c2-1.45,4.45-2.39,7.36-2.82c0.16-0.01,0.28-0.02,0.37-0.02c0.22,0,0.39,0.17,0.52,0.52
			c0.38,1.06,1.25,2.97,2.63,5.73c0.04,0.09,0.07,0.16,0.07,0.22c0,0.25-0.13,0.37-0.39,0.37c-0.12,0-0.31-0.02-0.59-0.07
			c-0.28-0.04-0.49-0.06-0.63-0.06c-1.04,0-1.96,0.24-2.74,0.72c-0.94,0.55-1.41,1.32-1.41,2.3c0,0.88,0.52,1.97,1.56,3.26
			c1.84,2.32,2.8,3.53,2.89,3.65C1155.15-191.09,1155.66-189.51,1155.66-187.93z"/>
	</g>
	<path class="st2" d="M1097.33-320.36c0,0,6.09,9.84,2.07,24.08c0,0-2.72,8.68-8.03,15.28c-5.31,6.6-14.11,15.67-16.18,30.17
		s6.09,24.08,8.68,27.19c0,0-3.11-10.49-0.65-18.13c1.77-5.49,5.34-10.17,7.54-12.76c0.98-1.15,2.04-2.23,3.16-3.25
		c2.93-2.66,9.67-8.83,11.82-11.31c1.87-2.15,8.42-7.38,8.03-19.03c0,0-0.03-0.69-0.1-1.79c-0.62-9.48-4.42-18.52-10.93-25.44
		C1101.16-317.04,1099.35-318.74,1097.33-320.36z"/>
	<path class="st6" d="M1118.15-291.31c1.78,1.79,5.05,5.57,6.81,11.38c0.8,2.65,2.21,8.79,0,15.64c-1.76,5.47-4.25,9.55-9.35,13
		c-6.6,4.47-14.55,8.85-19,15.44c-2.17,3.22-4.51,8.59-3.96,17.47c-7.31-4.37-5.54-19.87-3.56-24.69
		c2.44-5.93,8.38-11.37,16.05-18.39c2.22-2.03,6.42-5.72,9.96-11.78c1.82-3.13,2.55-5.32,2.95-6.91
		C1119.22-284.84,1118.68-288.91,1118.15-291.31z"/>
	<path class="st2" d="M1132.44-277.35c2.02,2.65,5.17,7.5,6.78,14.31c0.62,2.65,2.09,9.22,0,17.19
		c-0.75,2.86-9.04,17.96-12.37,17.77c-2.58-0.15-5.82,0.01-7.12,0.15c-3.89,0.41-11.1,6.04-13.45,10.26
		c-0.07,0.12-0.19,0.19-0.32,0.19l-7.78,0c-0.55-12.83,6.3-18.38,8.56-20.21c11.53-9.31,18.84-10.22,24.22-23.64
		C1132.01-263.93,1133.27-273.54,1132.44-277.35z"/>
	<path class="st6" d="M1067.85-279.5c0.01-0.04,0.06-0.07,0.09-0.04c1.57,1.08,4.73,3.61,5.9,7.85c0.71,2.55,1.11,4.88,0,7.35
		c-1.85,4.12-2.62,7.24-3.5,11.33c-1.09,5.06-0.35,9.33,0,11.54c0.42,2.65,1.07,4.86,1.66,6.51c0.02,0.07-0.07,0.1-0.12,0.05
		c-3.91-5.02-4.87-8.48-5.76-11.28c-1.97-6.22-2.13-14.35,0.11-24.25C1066.93-273.57,1067.25-276.45,1067.85-279.5z"/>
	<path class="st2" d="M1075.97-288.39c0.82,0.37,3.3,2.65,4.15,4.51c0.18,0.39,0.58,2.14-0.03,3.52c-0.31,0.7-0.99,1.54-2.68,1.59
		c-1.68,0.05-2.87-1.31-2.87-2.56c0-1.49,0.54-1.83,1.1-3.33C1076.19-286.15,1076.16-287.43,1075.97-288.39z"/>
	<path class="st6" d="M1083.51-302.11c1.19,0.6,5.68,4.63,6.57,7.52c0.09,0.3,0.59,2.57-0.38,4.59c-0.49,1.02-1.55,2.24-4.06,2.22
		c-2.49-0.01-3.41-2.09-3.7-3.91c-0.28-1.71,0.88-3,1.48-4.29C1084.41-298.13,1083.74-300.68,1083.51-302.11z"/>
	<ellipse class="st2" cx="1092.51" cy="-305" rx="2.55" ry="2.01"/>
	<path class="st2" d="M1617.15-343.05c0,0,4.77,7.71,1.62,18.86c0,0-2.13,6.79-6.29,11.96c-4.16,5.17-11.05,12.27-12.67,23.62
		c-1.62,11.36,4.77,18.86,6.79,21.29c0,0-2.43-8.21-0.51-14.19c1.38-4.3,4.18-7.96,5.91-9.99c0.77-0.9,1.6-1.75,2.48-2.55
		c2.29-2.08,7.57-6.91,9.26-8.86c1.46-1.69,6.59-5.78,6.29-14.9c0,0-0.02-0.54-0.08-1.4c-0.48-7.42-3.46-14.5-8.56-19.92
		C1620.15-340.45,1618.74-341.78,1617.15-343.05z"/>
	<path class="st6" d="M1633.45-320.3c1.39,1.4,3.96,4.36,5.33,8.91c0.63,2.08,1.73,6.89,0,12.25c-1.38,4.29-3.33,7.48-7.32,10.18
		c-5.17,3.5-11.39,6.93-14.88,12.09c-1.7,2.52-3.53,6.72-3.1,13.68c-5.73-3.42-4.34-15.56-2.78-19.33
		c1.91-4.65,6.57-8.91,12.57-14.4c1.74-1.59,5.03-4.48,7.8-9.23c1.43-2.45,2-4.17,2.31-5.41
		C1634.3-315.24,1633.87-318.42,1633.45-320.3z"/>
	<path class="st2" d="M1644.65-309.37c1.58,2.08,4.05,5.87,5.31,11.2c0.49,2.07,1.64,7.22,0,13.46c-0.59,2.24-7.08,14.06-9.69,13.91
		c-2.02-0.12-4.56,0.01-5.57,0.12c-3.05,0.32-8.7,4.73-10.53,8.03c-0.05,0.09-0.15,0.15-0.25,0.15l-6.09,0
		c-0.43-10.04,4.94-14.39,6.71-15.82c9.03-7.29,14.75-8,18.97-18.51C1644.31-298.86,1645.3-306.39,1644.65-309.37z"/>
	<path class="st6" d="M1594.07-311.05c0.01-0.03,0.04-0.05,0.07-0.03c1.23,0.84,3.7,2.83,4.62,6.15c0.55,2,0.87,3.82,0,5.75
		c-1.45,3.23-2.05,5.67-2.74,8.87c-0.86,3.96-0.27,7.31,0,9.03c0.33,2.07,0.84,3.8,1.3,5.1c0.02,0.05-0.06,0.08-0.09,0.04
		c-3.06-3.93-3.82-6.64-4.51-8.83c-1.54-4.87-1.67-11.24,0.08-18.99C1593.35-306.41,1593.6-308.66,1594.07-311.05z"/>
	<path class="st2" d="M1600.43-318.01c0.64,0.29,2.59,2.08,3.25,3.53c0.14,0.3,0.45,1.67-0.02,2.76c-0.24,0.55-0.78,1.21-2.1,1.25
		c-1.31,0.04-2.25-1.02-2.25-2c0-1.17,0.42-1.44,0.86-2.61C1600.6-316.26,1600.57-317.26,1600.43-318.01z"/>
	<path class="st6" d="M1606.33-328.76c0.93,0.47,4.45,3.62,5.15,5.89c0.07,0.24,0.46,2.01-0.3,3.59c-0.39,0.8-1.21,1.75-3.18,1.74
		c-1.95-0.01-2.67-1.63-2.9-3.07c-0.22-1.34,0.69-2.35,1.16-3.36C1607.04-325.64,1606.51-327.64,1606.33-328.76z"/>
	<ellipse class="st2" cx="1613.38" cy="-331.02" rx="1.99" ry="1.58"/>
	<text transform="matrix(1.1159 0 0 1 1212.5089 -450.8444)" class="st10" style="font-family:'Bauhaus93'; font-size:47.2829px;">IGNIS</text>
	<path class="st2" d="M1319.88-120.68c1.11-1.03,2.28-1.99,3.51-2.87c3.21-2.31,10.61-7.67,13.03-9.9c2.1-1.93,9.2-6.38,10.13-18
		c0,0,0.05-0.69,0.1-1.79c0.46-9.49-2.29-18.9-7.98-26.52c-1.38-1.85-2.98-3.75-4.81-5.59c0,0,4.93,10.47-0.67,24.16
		c0,0-3.69,8.31-9.71,14.27c-6.02,5.96-15.8,13.97-19.5,28.14c-0.66,2.53-0.97,4.93-1.04,7.2c3.18-0.88,6.59-1.29,10.13-1.15
		C1315.33-116.18,1318.04-118.96,1319.88-120.68z"/>
	<path class="st6" d="M1344.2-114.64c5.45-2.85,8.39-6.62,10.76-11.86c2.97-6.56,2.27-12.82,1.77-15.54
		c-1.08-5.97-3.91-10.1-5.47-12.08c0.25,2.45,0.34,6.55-1.37,11.09c-0.57,1.53-1.54,3.62-3.71,6.53c-4.2,5.63-8.79,8.81-11.23,10.58
		c-7.09,5.14-12.83,9.31-16.32,13.86c4.36,0.88,8.34,2.57,11.74,4.84C1334.75-110.08,1339.74-112.31,1344.2-114.64z"/>
	<path class="st2" d="M1368.99-123.64c-0.82-6.95-3.41-12.12-5.11-14.98c0.39,3.87-1.95,13.28-3.28,15.75
		c-6.59,12.21-13.64,12.77-25.26,19.82c3.5,3.68,5.84,8.15,6.59,12.96c1.4-0.55,2.7-0.88,3.72-0.87c1.31,0.01,4.54,0.22,7.09,0.66
		c3.29,0.57,13.23-13.49,14.31-16.25C1370.03-114.24,1369.31-120.94,1368.99-123.64z"/>
	<path class="st6" d="M1298.12-110.03c-0.1-2.23-0.35-6.56,1.31-11.46c1.34-3.96,2.45-6.98,4.76-10.86c1.38-2.33,1.25-4.69,0.83-7.3
		c-0.69-4.34-3.54-7.22-4.97-8.47c-0.03-0.03-0.08-0.01-0.1,0.03c-0.94,2.96-1.58,5.78-2.63,8.8c-3.35,9.58-4.11,17.68-2.85,24.08
		c0.35,1.78,0.7,3.83,1.7,6.41c0.64-0.36,1.3-0.69,1.97-1.01C1298.13-109.88,1298.12-109.95,1298.12-110.03z"/>
	<path class="st6" d="M1232.75-104.8c-0.58-1.74-1.69-5.3-5.29-6.65c-1.64-0.61-12.11-1.6-16.53-0.39c-1.84,0.5-3.74,2.78-3.48,3.59
		c0.19,0.58,10.74,0.79,13.26,2.21c1.06,0.6,1.45,1.84,1.58,2.47L1232.75-104.8z"/>
	<path class="st6" d="M1232.75-77.49c-0.58,1.74-1.69,5.3-5.29,6.65c-1.64,0.61-12.11,1.6-16.53,0.39c-1.84-0.5-3.74-2.78-3.48-3.59
		c0.19-0.58,10.74-0.79,13.26-2.21c1.06-0.6,1.45-1.84,1.58-2.47L1232.75-77.49z"/>
	<path class="st6" d="M1227.4-95.27c-2.04,0.24-15.53,0-15.53,4.1c0,3.25,13.5,3.9,15.53,4.14V-95.27z"/>
	<path class="st10" d="M1448.56-95.02c0,1.62,0.04,4.04,0.13,7.29s0.13,5.67,0.13,7.29c0,0.27-0.07,0.45-0.2,0.51
		c-0.03,0.01-0.22,0.04-0.57,0.08c-0.94,0.11-2.2,0.16-3.78,0.16c-2.11,0-3.46-0.05-4.04-0.16c-0.42-0.08-0.63-0.29-0.63-0.64
		c0,0.22,0.06-0.99,0.2-3.61c0.26-5.54,0.39-9.19,0.39-10.92c0-1.46-0.05-3.66-0.15-6.59c-0.1-2.93-0.15-5.13-0.15-6.59
		c0-0.3,0.17-0.45,0.5-0.45c0.45,0,1.13,0.02,2.03,0.06c0.9,0.04,1.58,0.06,2.03,0.06c0.45,0,1.11-0.02,1.99-0.06
		s1.54-0.06,1.99-0.06c0.42,0,0.63,0.15,0.63,0.45c0,1.46-0.08,3.66-0.25,6.59C1448.65-98.68,1448.56-96.48,1448.56-95.02z"/>
	<path class="st10" d="M1481.58-80.5c0.03,0.37-0.17,0.55-0.61,0.55c-0.28,0-1.07-0.15-2.38-0.45c-1.31-0.3-2.12-0.51-2.42-0.62
		c-3.03,1.12-5.93,1.68-8.71,1.68c-4.47,0-8.15-1.41-11.01-4.23c-2.84-2.78-4.26-6.29-4.26-10.53c0-4.34,1.38-7.94,4.13-10.8
		c2.84-2.96,6.52-4.43,11.06-4.43c2.2,0,4.27,0.4,6.21,1.19c2.1,0.88,3.75,2.11,4.95,3.7c0.25,0.33,0.37,0.56,0.37,0.7
		c0,0.44-0.65,1.42-1.94,2.95s-2.13,2.29-2.51,2.29c-0.09,0-0.42-0.28-1-0.84c-0.71-0.67-1.43-1.19-2.17-1.56
		c-1.1-0.56-2.32-0.84-3.65-0.84c-2.17,0-3.89,0.77-5.17,2.3c-1.19,1.41-1.78,3.17-1.78,5.28c0,2.23,0.62,4,1.85,5.3
		c1.27,1.34,3.08,2.01,5.41,2.01c1.48,0,3.13-0.35,4.95-1.05c-0.04-0.45-0.17-1.6-0.39-3.45c-0.19-1.42-0.28-2.57-0.28-3.45
		c0-0.26,0.09-0.42,0.28-0.47c0.07-0.03,0.19-0.04,0.35-0.04c0.42,0,1.05,0.04,1.9,0.11c0.85,0.08,1.49,0.11,1.92,0.11
		c0.46,0,1.16-0.03,2.08-0.09c0.93-0.06,1.62-0.09,2.08-0.09c0.36,0,0.54,0.23,0.54,0.68c0,0.66-0.04,1.65-0.12,2.98
		c-0.08,1.33-0.12,2.32-0.12,2.98c0,1.77,0.14,4.41,0.41,7.93L1481.58-80.5z"/>
	<path class="st10" d="M1513.68-108.02c0,1.56-0.07,3.91-0.21,7.03s-0.21,5.48-0.21,7.05v13.53c0,0.37-0.21,0.55-0.63,0.55
		c-0.35,0-0.87,0.01-1.58,0.04s-1.23,0.04-1.57,0.04c-0.38,0-0.94-0.03-1.69-0.08s-1.32-0.08-1.69-0.08c-0.26,0-0.57-0.23-0.93-0.68
		c-1.04-1.33-3.39-4.27-7.04-8.83c-1-1.27-2.52-3.15-4.56-5.63c-0.06-0.08-0.17-0.16-0.33-0.25c-0.12,0.1-0.17,0.25-0.17,0.45
		c0,1.59,0.05,3.97,0.14,7.15c0.09,3.18,0.14,5.56,0.14,7.15c0,0.48-0.2,0.72-0.59,0.72h-7.51c-0.42,0-0.63-0.21-0.63-0.64
		c0-1.48,0.08-3.71,0.23-6.69c0.15-2.98,0.23-5.22,0.23-6.71c0-1.57-0.07-3.93-0.21-7.06s-0.21-5.48-0.21-7.04
		c0-0.3,0.28-0.45,0.85-0.45c0.84,0,1.88-0.05,3.11-0.16c0.29-0.03,0.86-0.12,1.72-0.27c0.72-0.12,1.3-0.18,1.72-0.18
		c0.17,0,0.44,0.23,0.8,0.7l8.1,10.49c0.72,0.94,1.82,2.33,3.28,4.15c0.36,0.42,0.67,0.64,0.93,0.64c0.19,0,0.28-0.53,0.28-1.6
		c0-1.44-0.08-3.6-0.25-6.49c-0.17-2.89-0.25-5.06-0.25-6.51c0-0.51,0.15-0.76,0.46-0.76c0.87,0,2.18-0.03,3.93-0.1
		s3.06-0.1,3.93-0.1C1513.54-108.65,1513.68-108.44,1513.68-108.02z"/>
	<path class="st10" d="M1526.54-95.02c0,1.62,0.04,4.04,0.13,7.29s0.13,5.67,0.13,7.29c0,0.27-0.07,0.45-0.2,0.51
		c-0.03,0.01-0.22,0.04-0.57,0.08c-0.94,0.11-2.2,0.16-3.78,0.16c-2.11,0-3.46-0.05-4.04-0.16c-0.42-0.08-0.63-0.29-0.63-0.64
		c0,0.22,0.06-0.99,0.2-3.61c0.26-5.54,0.39-9.19,0.39-10.92c0-1.46-0.05-3.66-0.15-6.59c-0.1-2.93-0.15-5.13-0.15-6.59
		c0-0.3,0.17-0.45,0.5-0.45c0.45,0,1.13,0.02,2.03,0.06c0.9,0.04,1.58,0.06,2.03,0.06c0.45,0,1.11-0.02,1.99-0.06
		s1.54-0.06,1.99-0.06c0.42,0,0.63,0.15,0.63,0.45c0,1.46-0.08,3.66-0.25,6.59C1526.62-98.68,1526.54-96.48,1526.54-95.02z"/>
	<path class="st10" d="M1549.98-89.93c0,2.78-1.24,5.16-3.71,7.15c-2.17,1.75-4.81,2.87-7.93,3.35c-0.12,0.01-0.21,0.02-0.28,0.02
		c-0.33,0-1.07-0.96-2.21-2.88c-1.14-1.92-1.72-3.1-1.72-3.52c0-0.15,0.11-0.25,0.33-0.29c2.1-0.45,3.49-0.83,4.17-1.15
		c1.51-0.71,2.26-1.77,2.26-3.16c0-0.89-0.49-1.88-1.48-2.98c-1.71-1.86-2.64-2.9-2.78-3.1c-1-1.42-1.5-3-1.5-4.72
		c0-2.5,1.22-4.59,3.67-6.24c2-1.37,4.45-2.26,7.36-2.67c0.16-0.01,0.28-0.02,0.37-0.02c0.22,0,0.39,0.17,0.52,0.49
		c0.38,1,1.25,2.81,2.63,5.42c0.04,0.08,0.07,0.15,0.07,0.21c0,0.23-0.13,0.35-0.39,0.35c-0.12,0-0.31-0.02-0.59-0.06
		c-0.28-0.04-0.49-0.06-0.63-0.06c-1.04,0-1.96,0.23-2.74,0.68c-0.94,0.52-1.41,1.25-1.41,2.18c0,0.83,0.52,1.86,1.56,3.08
		c1.84,2.19,2.8,3.34,2.89,3.45C1549.47-92.93,1549.98-91.43,1549.98-89.93z"/>
	<path class="st10" d="M1523.74-159.07c0.77,0.46,2.98,3.01,3.61,4.95c0.13,0.41,0.33,2.19-0.43,3.49
		c-0.39,0.66-1.16,1.42-2.85,1.28c-1.67-0.14-2.7-1.62-2.56-2.87c0.17-1.49,0.74-1.76,1.47-3.18
		C1523.7-156.81,1523.81-158.09,1523.74-159.07z"/>
	<path class="st17" d="M1532.78-171.85c1.11,0.73,5.12,5.24,5.68,8.21c0.06,0.31,0.29,2.62-0.9,4.52c-0.6,0.96-1.79,2.05-4.28,1.75
		c-2.47-0.29-3.15-2.46-3.23-4.31c-0.08-1.73,1.21-2.88,1.95-4.09C1533.23-167.78,1532.84-170.4,1532.78-171.85z"/>
	
		<ellipse transform="matrix(0.1134 -0.9936 0.9936 0.1134 1539.8096 1378.1117)" class="st10" cx="1542.05" cy="-173.69" rx="2.01" ry="2.55"/>
	<path class="st10" d="M1534.59-123.74c1.11-1.03,2.28-1.99,3.51-2.87c3.21-2.31,10.61-7.67,13.03-9.9c2.1-1.93,9.2-6.38,10.13-18
		c0,0,0.05-0.69,0.1-1.79c0.46-9.49-2.29-18.9-7.98-26.52c-1.38-1.85-2.98-3.75-4.81-5.59c0,0,4.93,10.47-0.67,24.16
		c0,0-3.69,8.31-9.71,14.27c-6.02,5.96-15.8,13.97-19.5,28.14c-0.66,2.53-0.97,4.93-1.04,7.2c3.18-0.88,6.59-1.29,10.13-1.15
		C1530.03-119.24,1532.75-122.02,1534.59-123.74z"/>
	<path class="st17" d="M1558.91-117.71c5.45-2.85,8.39-6.62,10.76-11.86c2.97-6.56,2.27-12.82,1.77-15.54
		c-1.08-5.97-3.91-10.1-5.47-12.08c0.25,2.45,0.34,6.55-1.37,11.09c-0.57,1.53-1.54,3.62-3.71,6.53c-4.2,5.63-8.79,8.81-11.23,10.58
		c-7.09,5.14-12.83,9.31-16.32,13.86c4.36,0.88,8.34,2.57,11.74,4.84C1549.46-113.14,1554.45-115.38,1558.91-117.71z"/>
	<path class="st10" d="M1583.7-126.71c-0.82-6.95-3.41-12.12-5.11-14.98c0.39,3.87-1.95,13.28-3.28,15.75
		c-6.59,12.21-13.64,12.77-25.26,19.82c3.5,3.68,5.84,8.15,6.59,12.96c1.4-0.55,2.7-0.88,3.72-0.87c1.31,0.01,4.54,0.22,7.09,0.66
		c3.29,0.57,13.23-13.49,14.31-16.25C1584.74-117.31,1584.02-124,1583.7-126.71z"/>
	<path class="st17" d="M1512.83-113.1c-0.1-2.23-0.35-6.56,1.31-11.46c1.34-3.96,2.45-6.98,4.76-10.86c1.38-2.33,1.25-4.69,0.83-7.3
		c-0.69-4.34-3.54-7.22-4.97-8.47c-0.03-0.03-0.08-0.01-0.1,0.03c-0.94,2.96-1.58,5.78-2.63,8.8c-3.35,9.58-4.11,17.68-2.85,24.08
		c0.35,1.78,0.7,3.83,1.7,6.41c0.64-0.36,1.3-0.69,1.97-1.01C1512.84-112.94,1512.83-113.01,1512.83-113.1z"/>
	<path class="st17" d="M1447.46-107.86c-0.58-1.74-1.69-5.3-5.29-6.65c-1.64-0.61-12.11-1.6-16.53-0.39
		c-1.84,0.5-3.74,2.78-3.48,3.59c0.19,0.58,10.74,0.79,13.26,2.21c1.06,0.6,1.45,1.84,1.58,2.47L1447.46-107.86z"/>
	<path class="st17" d="M1447.46-80.56c-0.58,1.74-1.69,5.3-5.29,6.65c-1.64,0.61-12.11,1.6-16.53,0.39
		c-1.84-0.5-3.74-2.78-3.48-3.59c0.19-0.58,10.74-0.79,13.26-2.21c1.06-0.6,1.45-1.84,1.58-2.47L1447.46-80.56z"/>
	<path class="st17" d="M1442.11-98.33c-2.04,0.24-15.53,0-15.53,4.1c0,3.25,13.5,3.9,15.53,4.14V-98.33z"/>
	<path class="st2" d="M1621.05-234.5c-3.46,0-8.67,0.06-15.63,0.19c-6.96,0.13-12.17,0.34-15.63,0.19c-0.39-0.02-0.95-0.1-1.1-0.29
		c-0.03-0.04-0.09-0.32-0.18-0.83c-0.23-1.38-0.35-3.23-0.35-5.54c0-3.1,0.12-5.07,0.35-5.92c0.18-0.62,0.63-0.92,1.37-0.92
		c-0.47,0,2.11,0.09,7.75,0.29c11.89,0.38,19.69,0.57,23.42,0.57c3.14,0,7.85-0.07,14.13-0.22c6.28-0.15,10.99-0.22,14.13-0.22
		c0.64,0,0.97,0.24,0.97,0.73c0,0.66-0.05,1.65-0.13,2.98c-0.09,1.33-0.13,2.32-0.13,2.98c0,0.66,0.04,1.63,0.13,2.91
		c0.09,1.28,0.13,2.26,0.13,2.91c0,0.62-0.32,0.92-0.97,0.92c-3.14,0-7.85-0.12-14.13-0.37
		C1628.9-234.38,1624.19-234.5,1621.05-234.5z"/>
	<path class="st6" d="M1591.18-234.08c-3.74,0.19-9.75-1.71-12.62-7.98c-1.31-2.86-4.4-21.51-2.8-29.59
		c0.67-3.36,4.51-7.05,5.99-6.69c1.06,0.26,2.77,19.16,5.64,23.5c1.2,1.82,3.48,2.36,4.64,2.52L1591.18-234.08z"/>
	<path class="st6" d="M1649.46-233.78c3.74,0.19,9.75-1.71,12.62-7.98c1.31-2.86,4.4-21.51,2.8-29.59
		c-0.67-3.36-4.51-7.05-5.99-6.69c-1.06,0.26-2.77,19.16-5.64,23.5c-1.2,1.82-3.48,2.36-4.64,2.52L1649.46-233.78z"/>
	<path class="st6" d="M1641.27-246.62l-1.25-5.97c-1-2.07-2.84-3.63-4.8-3.63h-30.56c-1.76,0.05-3.16,1.53-4.04,3.4l-1.25,6.21
		H1641.27z"/>
	<g>
		<path class="st18" d="M1373.16,405.15c0,4.1,0.1,10.27,0.31,18.5s0.31,14.4,0.31,18.5c0,0.7-0.16,1.13-0.47,1.3
			c-0.07,0.04-0.52,0.11-1.36,0.21c-2.26,0.28-5.28,0.42-9.07,0.42c-5.07,0-8.3-0.14-9.69-0.42c-1.01-0.21-1.51-0.74-1.51-1.61
			c0,0.56,0.15-2.5,0.47-9.17c0.63-14.07,0.94-23.31,0.94-27.72c0-3.72-0.12-9.29-0.36-16.72c-0.24-7.43-0.37-13.01-0.37-16.72
			c0-0.76,0.4-1.15,1.2-1.15c1.08,0,2.7,0.05,4.87,0.16c2.17,0.11,3.8,0.16,4.87,0.16c1.08,0,2.67-0.05,4.77-0.16
			c2.1-0.1,3.69-0.16,4.77-0.16c1.01,0,1.51,0.38,1.51,1.15c0,3.72-0.2,9.29-0.6,16.72
			C1373.36,395.86,1373.16,401.43,1373.16,405.15z"/>
		<path class="st18" d="M1452.35,441.99c0.07,0.94-0.42,1.41-1.46,1.41c-0.66,0-2.56-0.38-5.7-1.15c-3.14-0.76-5.08-1.29-5.81-1.56
			c-7.26,2.85-14.22,4.27-20.89,4.27c-10.73,0-19.54-3.58-26.42-10.73c-6.81-7.05-10.21-15.96-10.21-26.73
			c0-11.01,3.3-20.14,9.9-27.41c6.81-7.5,15.65-11.25,26.52-11.25c5.28,0,10.24,1.01,14.9,3.02c5.04,2.22,9,5.35,11.88,9.38
			c0.59,0.83,0.89,1.42,0.89,1.77c0,1.11-1.55,3.6-4.66,7.48c-3.11,3.87-5.12,5.81-6.02,5.81c-0.21,0-1.01-0.71-2.4-2.14
			c-1.7-1.7-3.44-3.02-5.21-3.96c-2.64-1.42-5.56-2.14-8.75-2.14c-5.21,0-9.34,1.95-12.4,5.84c-2.85,3.58-4.27,8.04-4.27,13.39
			c0,5.66,1.48,10.14,4.43,13.44c3.05,3.41,7.38,5.11,12.97,5.11c3.54,0,7.5-0.89,11.88-2.66c-0.11-1.15-0.42-4.06-0.94-8.75
			c-0.45-3.61-0.68-6.53-0.68-8.75c0-0.66,0.23-1.06,0.68-1.2c0.17-0.07,0.45-0.1,0.83-0.1c1.01,0,2.53,0.1,4.56,0.29
			c2.03,0.19,3.57,0.29,4.61,0.29c1.11,0,2.78-0.08,5-0.23c2.22-0.15,3.89-0.23,5-0.23c0.87,0,1.3,0.57,1.3,1.72
			c0,1.67-0.1,4.19-0.29,7.56c-0.19,3.37-0.29,5.89-0.29,7.56c0,4.48,0.33,11.18,0.99,20.11L1452.35,441.99z"/>
		<path class="st18" d="M1529.36,372.17c0,3.96-0.16,9.91-0.49,17.84c-0.33,7.94-0.49,13.9-0.49,17.9v34.34
			c0,0.94-0.5,1.41-1.51,1.41c-0.83,0-2.09,0.04-3.78,0.11c-1.68,0.07-2.94,0.1-3.78,0.1c-0.9,0-2.26-0.07-4.06-0.21
			c-1.81-0.14-3.16-0.21-4.06-0.21c-0.63,0-1.37-0.57-2.24-1.72c-2.5-3.37-8.13-10.84-16.88-22.4c-2.4-3.23-6.04-7.99-10.94-14.28
			c-0.14-0.21-0.4-0.42-0.78-0.63c-0.28,0.24-0.42,0.63-0.42,1.15c0,4.03,0.11,10.07,0.34,18.13c0.23,8.06,0.34,14.1,0.34,18.13
			c0,1.22-0.47,1.82-1.41,1.82h-18.03c-1.01,0-1.51-0.54-1.51-1.61c0-3.75,0.18-9.41,0.55-16.99c0.36-7.57,0.55-13.25,0.55-17.04
			c0-3.99-0.16-9.97-0.49-17.92s-0.49-13.91-0.49-17.87c0-0.76,0.68-1.15,2.03-1.15c2.01,0,4.5-0.14,7.45-0.42
			c0.7-0.07,2.07-0.3,4.12-0.68c1.74-0.31,3.12-0.35,4.12-0.47c0.59-0.07,1.06,0.59,1.93,1.77l19.43,26.62
			c1.74,2.4,4.36,5.91,7.87,10.52c0.87,1.08,1.61,1.62,2.24,1.62c0.45,0,0.68-1.35,0.68-4.06c0-3.65-0.2-9.13-0.6-16.46
			c-0.4-7.33-0.6-12.83-0.6-16.52c0-1.29,0.36-1.93,1.09-1.93c2.08,0,5.23-0.09,9.43-0.26s7.35-0.26,9.43-0.26
			C1529.03,370.55,1529.36,371.09,1529.36,372.17z"/>
		<path class="st18" d="M1560.21,405.15c0,4.1,0.1,10.27,0.31,18.5s0.31,14.4,0.31,18.5c0,0.7-0.16,1.13-0.47,1.3
			c-0.07,0.04-0.52,0.11-1.36,0.21c-2.26,0.28-5.28,0.42-9.07,0.42c-5.07,0-8.3-0.14-9.69-0.42c-1.01-0.21-1.51-0.74-1.51-1.61
			c0,0.56,0.15-2.5,0.47-9.17c0.63-14.07,0.94-23.31,0.94-27.72c0-3.72-0.12-9.29-0.36-16.72c-0.24-7.43-0.37-13.01-0.37-16.72
			c0-0.76,0.4-1.15,1.2-1.15c1.08,0,2.7,0.05,4.87,0.16c2.17,0.11,3.8,0.16,4.87,0.16c1.08,0,2.67-0.05,4.77-0.16
			c2.1-0.1,3.69-0.16,4.77-0.16c1.01,0,1.51,0.38,1.51,1.15c0,3.72-0.2,9.29-0.6,16.72
			C1560.41,395.86,1560.21,401.43,1560.21,405.15z"/>
		<path class="st18" d="M1606.37,419.69c0,7.05-2.97,13.1-8.91,18.13c-5.21,4.45-11.55,7.28-19.02,8.49
			c-0.28,0.03-0.5,0.05-0.68,0.05c-0.8,0-2.57-2.44-5.31-7.32c-2.75-4.88-4.12-7.86-4.12-8.94c0-0.38,0.26-0.63,0.78-0.73
			c5.04-1.15,8.37-2.12,10-2.92c3.61-1.81,5.42-4.48,5.42-8.02c0-2.26-1.18-4.78-3.54-7.56c-4.1-4.72-6.32-7.35-6.67-7.87
			c-2.4-3.61-3.59-7.61-3.59-11.98c0-6.36,2.93-11.64,8.8-15.84c4.8-3.47,10.68-5.73,17.66-6.77c0.38-0.04,0.68-0.05,0.89-0.05
			c0.52,0,0.94,0.42,1.25,1.25c0.9,2.54,3,7.12,6.3,13.76c0.1,0.21,0.16,0.38,0.16,0.52c0,0.59-0.31,0.89-0.94,0.89
			c-0.28,0-0.75-0.05-1.41-0.16c-0.66-0.1-1.16-0.15-1.51-0.15c-2.5,0-4.69,0.57-6.56,1.72c-2.26,1.32-3.39,3.16-3.39,5.52
			c0,2.12,1.25,4.73,3.75,7.82c4.41,5.56,6.72,8.48,6.93,8.75C1605.14,412.1,1606.37,415.9,1606.37,419.69z"/>
	</g>
	<path class="st19" d="M1466.42,101.99c0,0,14.6,24.37,4.97,59.64c0,0-6.52,21.48-19.26,37.84s-33.86,38.8-38.83,74.71
		s14.6,59.64,20.81,67.34c0,0-7.45-25.97-1.55-44.89c4.24-13.58,12.8-25.19,18.1-31.6c2.36-2.86,4.89-5.53,7.59-8.05
		c7.03-6.58,23.2-21.85,28.36-28.01c4.48-5.33,20.19-18.28,19.26-47.14c0,0-0.07-1.71-0.24-4.44
		c-1.48-23.48-10.61-45.87-26.22-63.01C1475.62,110.22,1471.29,106,1466.42,101.99z"/>
	<path class="st18" d="M1520.34,171.68c4.27,4.29,12.13,13.36,16.33,27.29c1.92,6.36,5.29,21.09,0,37.53
		c-4.23,13.13-10.2,22.92-22.42,31.19c-15.84,10.72-34.9,21.22-45.57,37.04c-5.22,7.73-10.82,20.6-9.5,41.92
		c-17.55-10.48-13.28-47.65-8.53-59.22c5.85-14.24,20.11-27.28,38.5-44.11c5.32-4.87,15.41-13.71,23.88-28.27
		c4.37-7.51,6.11-12.77,7.07-16.57C1522.92,187.19,1521.61,177.44,1520.34,171.68z"/>
	<path class="st19" d="M1550.66,205.18c4.84,6.36,12.4,17.99,16.26,34.32c1.5,6.35,5.03,22.12,0,41.25
		c-1.8,6.87-21.68,43.09-29.68,42.62c-6.2-0.36-13.96,0.03-17.07,0.36c-9.34,0.98-26.64,14.49-32.26,24.61
		c-0.16,0.29-0.45,0.46-0.77,0.46l-18.66,0c-1.32-30.77,15.12-44.09,20.55-48.47c27.65-22.34,45.19-24.51,58.1-56.71
		C1549.63,237.35,1552.65,214.3,1550.66,205.18z"/>
	<path class="st18" d="M1395.71,200.02c0.02-0.11,0.14-0.17,0.22-0.11c3.76,2.59,11.34,8.66,14.16,18.83
		c1.69,6.11,2.67,11.7,0,17.63c-4.45,9.88-6.28,17.38-8.4,27.18c-2.62,12.13-0.84,22.39,0,27.67c1.01,6.36,2.57,11.65,3.97,15.61
		c0.06,0.16-0.17,0.25-0.28,0.12c-9.38-12.03-11.69-20.35-13.82-27.06c-4.73-14.91-5.12-34.43,0.25-58.18
		C1393.52,214.23,1394.27,207.33,1395.71,200.02z"/>
	<path class="st19" d="M1415.02,178.74c1.97,0.87,8.02,6.24,10.11,10.66c0.44,0.92,1.46,5.11,0.06,8.44
		c-0.71,1.69-2.32,3.74-6.38,3.92c-4.02,0.18-6.93-3.03-6.98-6.03c-0.06-3.59,1.22-4.42,2.51-8.02
		C1415.64,184.12,1415.5,181.03,1415.02,178.74z"/>
	<path class="st18" d="M1431.84,146.37c2.96,1.19,14.51,9.91,17.23,16.64c0.29,0.71,1.93,6.03,0.01,11.05
		c-0.97,2.54-3.25,5.66-9.25,6.14c-5.95,0.48-8.56-4.3-9.64-8.61c-1.01-4.02,1.49-7.34,2.66-10.55
		C1434.81,155.71,1432.67,149.74,1431.84,146.37z"/>
	<polygon class="st19" points="1457.71,153.47 1453.73,146.2 1446.46,142.22 1453.73,138.24 1457.71,130.97 1461.69,138.24 
		1468.96,142.22 1461.69,146.2 	"/>
	<path class="st19" d="M1065.86,106.53c0,0,14.6,24.37,4.97,59.64c0,0-6.52,21.48-19.26,37.84c-12.73,16.35-33.86,38.8-38.83,74.71
		s14.6,59.64,20.81,67.34c0,0-7.45-25.97-1.55-44.89c4.24-13.58,12.8-25.19,18.1-31.6c2.36-2.86,4.89-5.53,7.59-8.05
		c7.03-6.58,23.2-21.85,28.36-28.01c4.48-5.33,20.19-18.28,19.26-47.14c0,0-0.07-1.71-0.24-4.44
		c-1.48-23.48-10.61-45.87-26.22-63.01C1075.05,114.76,1070.72,110.54,1065.86,106.53z"/>
	<path class="st18" d="M1119.77,176.21c4.27,4.29,12.13,13.36,16.33,27.29c1.92,6.36,5.29,21.09,0,37.53
		c-4.23,13.13-10.2,22.92-22.42,31.19c-15.84,10.72-34.9,21.22-45.57,37.04c-5.22,7.73-10.82,20.6-9.5,41.92
		c-17.55-10.48-13.28-47.65-8.53-59.22c5.85-14.24,20.11-27.28,38.5-44.11c5.32-4.87,15.41-13.71,23.88-28.27
		c4.37-7.51,6.11-12.77,7.07-16.57C1122.35,191.73,1121.04,181.98,1119.77,176.21z"/>
	<path class="st19" d="M1150.1,209.72c4.84,6.36,12.4,17.99,16.26,34.32c1.5,6.35,5.03,22.12,0,41.25
		c-1.8,6.87-21.68,43.09-29.68,42.62c-6.2-0.36-13.96,0.03-17.07,0.36c-9.34,0.98-26.64,14.49-32.26,24.61
		c-0.16,0.29-0.45,0.46-0.77,0.46l-18.66,0c-1.32-30.77,15.12-44.09,20.55-48.47c27.65-22.34,45.19-24.51,58.1-56.71
		C1149.06,241.89,1152.08,218.84,1150.1,209.72z"/>
	<path class="st18" d="M995.14,204.55c0.02-0.11,0.14-0.17,0.22-0.11c3.76,2.59,11.34,8.66,14.16,18.83c1.69,6.11,2.67,11.7,0,17.63
		c-4.45,9.88-6.28,17.38-8.4,27.18c-2.62,12.13-0.84,22.39,0,27.67c1.01,6.36,2.57,11.65,3.97,15.61c0.06,0.16-0.17,0.25-0.28,0.12
		c-9.38-12.03-11.69-20.35-13.82-27.06c-4.73-14.91-5.12-34.43,0.25-58.18C992.95,218.77,993.7,211.87,995.14,204.55z"/>
	<path class="st19" d="M1014.45,183.28c1.97,0.87,8.02,6.24,10.11,10.66c0.44,0.92,1.46,5.11,0.06,8.44
		c-0.71,1.69-2.32,3.74-6.38,3.92c-4.02,0.18-6.93-3.03-6.98-6.03c-0.06-3.59,1.22-4.42,2.51-8.02
		C1015.07,188.65,1014.94,185.57,1014.45,183.28z"/>
	<path class="st18" d="M1031.28,150.9c2.96,1.19,14.51,9.91,17.23,16.64c0.29,0.71,1.93,6.03,0.01,11.05
		c-0.97,2.54-3.25,5.66-9.25,6.14c-5.95,0.48-8.56-4.3-9.64-8.61c-1.01-4.02,1.49-7.34,2.66-10.55
		C1034.24,160.24,1032.11,154.28,1031.28,150.9z"/>
	<polygon class="st19" points="1057.14,158.01 1053.17,150.74 1045.89,146.76 1053.17,142.78 1057.14,135.51 1061.12,142.78 
		1068.39,146.76 1061.12,150.74 	"/>
	<g>
		<path class="st19" d="M398.49,72.31c0,0,26.66,44.5,9.07,108.9c0,0-11.91,39.23-35.16,69.09c-23.25,29.86-61.82,70.85-70.9,136.42
			c-9.07,65.58,26.66,108.9,38,122.96c0,0-13.61-47.43-2.84-81.97c7.74-24.81,23.37-45.99,33.04-57.7
			c4.31-5.21,8.93-10.1,13.85-14.7c12.83-12.01,42.36-39.91,51.79-51.15c8.17-9.73,36.87-33.37,35.16-86.07c0,0-0.12-3.13-0.43-8.11
			c-2.7-42.87-19.37-83.76-47.88-115.05C415.28,87.34,407.38,79.63,398.49,72.31z"/>
		<path class="st18" d="M496.94,199.55c7.79,7.84,22.14,24.4,29.81,49.84c3.5,11.61,9.67,38.52,0,68.53
			c-7.72,23.97-18.63,41.85-40.94,56.96c-28.92,19.58-63.73,38.75-83.21,67.64c-9.52,14.12-19.76,37.61-17.35,76.54
			c-32.04-19.13-24.26-87.02-15.58-108.13c10.69-26,36.73-49.82,70.31-80.54c9.72-8.89,28.14-25.04,43.61-51.62
			c7.99-13.72,11.17-23.31,12.9-30.26C501.65,227.89,499.26,210.08,496.94,199.55z"/>
		<path class="st19" d="M552.32,260.73c8.85,11.62,22.65,32.84,29.69,62.67c2.74,11.6,9.18,40.39,0,75.32
			c-3.29,12.54-39.6,78.67-54.2,77.83c-11.31-0.66-25.49,0.06-31.17,0.65c-17.06,1.78-48.64,26.47-58.91,44.93
			c-0.29,0.52-0.82,0.84-1.41,0.84l-34.07,0c-2.41-56.19,27.62-80.51,37.52-88.51c50.5-40.8,82.51-44.76,106.09-103.55
			C550.43,319.48,555.94,277.38,552.32,260.73z"/>
		<path class="st18" d="M269.37,251.3c0.04-0.19,0.25-0.3,0.41-0.19c6.86,4.72,20.71,15.81,25.86,34.38
			c3.09,11.16,4.87,21.37,0,32.19c-8.12,18.05-11.47,31.73-15.34,49.63c-4.79,22.15-1.53,40.89,0,50.53
			c1.84,11.61,4.69,21.27,7.26,28.51c0.1,0.29-0.31,0.45-0.5,0.21c-17.13-21.97-21.35-37.16-25.23-49.41
			c-8.64-27.23-9.34-62.87,0.46-106.24C265.36,277.26,266.73,264.66,269.37,251.3z"/>
		<path class="st19" d="M304.63,212.45c3.6,1.59,14.64,11.4,18.46,19.47c0.8,1.69,2.67,9.32,0.1,15.41
			c-1.3,3.08-4.24,6.82-11.64,7.16c-7.35,0.33-12.66-5.53-12.74-11c-0.11-6.55,2.23-8.07,4.59-14.65
			C305.76,222.27,305.51,216.64,304.63,212.45z"/>
		<path class="st18" d="M335.35,153.33c5.41,2.16,26.5,18.1,31.46,30.38c0.52,1.29,3.52,11.01,0.03,20.17
			c-1.77,4.64-5.93,10.33-16.89,11.2c-10.87,0.87-15.64-7.85-17.6-15.72c-1.84-7.34,2.72-13.4,4.86-19.26
			C340.76,170.39,336.87,159.49,335.35,153.33z"/>
		<polygon class="st19" points="382.58,166.3 375.32,153.03 362.04,145.77 375.32,138.5 382.58,125.23 389.84,138.5 403.12,145.77 
			389.84,153.03 		"/>
	</g>
</g>
</svg>
